<svg width="575" height="847" viewBox="0 0 575 847" fill="none" xmlns="http://www.w3.org/2000/svg">
<mask id="mask0_593_7" style="mask-type:alpha" maskUnits="userSpaceOnUse" x="35" y="35" width="540" height="810">
<path d="M35 193.923C35 191.697 36.4711 189.74 38.6089 189.12L567.737 35.8513C570.935 34.9249 574.128 37.3244 574.128 40.6539V686.139C574.128 688.365 572.657 690.322 570.519 690.942L41.3911 844.211C38.1931 845.137 35 842.738 35 839.408V193.923Z" fill="#70DA1C"/>
</mask>
<g mask="url(#mask0_593_7)">
<rect x="58.4678" y="25.6357" width="540.626" height="899.515" fill="#CCF235"/>
</g>
<mask id="mask1_593_7" style="mask-type:alpha" maskUnits="userSpaceOnUse" x="0" y="1" width="540" height="813">
<path d="M0 160.467C0 158.243 1.46885 156.286 3.60437 155.666L532.733 1.85907C535.932 0.92918 539.128 3.32891 539.128 6.66035V654.443C539.128 656.667 537.659 658.623 535.524 659.244L6.39561 813.051C3.19658 813.981 0 811.581 0 808.249V160.467Z" fill="#D9D9D9"/>
</mask>
<g mask="url(#mask1_593_7)">
<rect x="19.4678" y="-12.6182" width="540.626" height="902.669" fill="white"/>
</g>
</svg>
