<svg width="613" height="778" viewBox="0 0 613 778" fill="none" xmlns="http://www.w3.org/2000/svg">
<mask id="mask0_593_6" style="mask-type:alpha" maskUnits="userSpaceOnUse" x="0" y="1" width="540" height="775">
<path d="M0 153.238C0 150.991 1.49903 149.02 3.66446 148.419L532.793 1.75607C535.978 0.873158 539.128 3.26896 539.128 6.57441V623.824C539.128 626.072 537.629 628.043 535.464 628.643L6.33552 775.306C3.15016 776.189 0 773.793 0 770.488V153.238Z" fill="#70DA1C"/>
</mask>
<g mask="url(#mask0_593_6)">
<rect x="35.4678" y="-0.960938" width="540.626" height="860.746" fill="#70DA1C"/>
</g>
<mask id="mask1_593_6" style="mask-type:alpha" maskUnits="userSpaceOnUse" x="51" y="26" width="562" height="735">
<path d="M51 170.625C51 168.335 52.5557 166.338 54.7759 165.777L606.089 26.5716C609.247 25.774 612.313 28.1617 612.313 31.4194V616.375C612.313 618.665 610.757 620.662 608.537 621.223L57.2241 760.428C54.0655 761.226 51 758.838 51 755.581V170.625Z" fill="#D9D9D9"/>
</mask>
<g mask="url(#mask1_593_6)">
<rect x="76.3921" y="25.5015" width="562.872" height="816.369" fill="white"/>
</g>
</svg>
