<svg width="347" height="42" viewBox="0 0 347 42" fill="none" xmlns="http://www.w3.org/2000/svg">
<path d="M21.64 41L19.912 33.848H10.216L8.536 41H0.376L10.408 7.736H19.96L29.992 41H21.64ZM11.56 28.136H18.568L15.064 13.448L11.56 28.136ZM47.2165 14.696C49.4245 14.696 51.1525 15.368 52.4005 16.712C53.6485 18.056 54.2725 19.944 54.2725 22.376V41H46.6885V23.672C46.6885 22.392 46.4805 21.512 46.0645 21.032C45.6805 20.52 45.0885 20.264 44.2885 20.264C42.7525 20.264 41.2805 21.368 39.8725 23.576V41H32.2885V15.512H38.9125L39.4405 18.536C40.5285 17.256 41.6965 16.296 42.9445 15.656C44.2245 15.016 45.6485 14.696 47.2165 14.696ZM82.8396 5.384V41H76.1196L75.7356 38.024C73.9436 40.552 71.5276 41.816 68.4876 41.816C65.3196 41.816 62.9036 40.6 61.2396 38.168C59.6076 35.736 58.7916 32.408 58.7916 28.184C58.7916 25.592 59.2236 23.272 60.0876 21.224C60.9516 19.176 62.1676 17.576 63.7356 16.424C65.3356 15.272 67.1596 14.696 69.2076 14.696C71.6396 14.696 73.6556 15.496 75.2556 17.096V4.568L82.8396 5.384ZM70.8396 36.248C72.5996 36.248 74.0716 35.288 75.2556 33.368V22.376C74.6476 21.64 74.0236 21.096 73.3836 20.744C72.7756 20.392 72.0716 20.216 71.2716 20.216C69.8636 20.216 68.7436 20.872 67.9116 22.184C67.0796 23.496 66.6636 25.512 66.6636 28.232C66.6636 31.208 67.0156 33.288 67.7196 34.472C68.4556 35.656 69.4956 36.248 70.8396 36.248ZM102.597 14.792C103.525 14.792 104.373 14.904 105.141 15.128L103.941 22.472C102.981 22.248 102.213 22.136 101.637 22.136C100.133 22.136 98.9809 22.664 98.1809 23.72C97.4129 24.744 96.8049 26.296 96.3569 28.376V41H88.7729V15.512H95.3969L96.0209 20.456C96.5969 18.696 97.4609 17.32 98.6129 16.328C99.7969 15.304 101.125 14.792 102.597 14.792ZM128.809 27.752C128.809 28.808 128.761 29.72 128.665 30.488H112.873C113.129 32.632 113.737 34.136 114.697 35C115.657 35.864 116.985 36.296 118.681 36.296C119.705 36.296 120.697 36.12 121.657 35.768C122.617 35.384 123.657 34.808 124.777 34.04L127.897 38.264C124.921 40.632 121.609 41.816 117.961 41.816C113.833 41.816 110.665 40.6 108.457 38.168C106.249 35.736 105.145 32.472 105.145 28.376C105.145 25.784 105.609 23.464 106.537 21.416C107.465 19.336 108.825 17.704 110.617 16.52C112.409 15.304 114.553 14.696 117.049 14.696C120.729 14.696 123.609 15.848 125.689 18.152C127.769 20.456 128.809 23.656 128.809 27.752ZM121.369 25.592C121.305 21.688 119.929 19.736 117.241 19.736C115.929 19.736 114.905 20.216 114.169 21.176C113.465 22.136 113.033 23.72 112.873 25.928H121.369V25.592ZM120.649 0.919998L123.625 6.584L112.297 11.144L110.185 7.256L120.649 0.919998ZM152.476 7.736V34.76H165.436L164.62 41H144.604V7.736H152.476ZM189.871 41H183.295L182.959 37.784C181.103 40.472 178.527 41.816 175.231 41.816C172.895 41.816 171.119 41.112 169.903 39.704C168.719 38.296 168.127 36.328 168.127 33.8V15.512H175.711V32.84C175.711 34.088 175.903 34.968 176.287 35.48C176.703 35.96 177.327 36.2 178.159 36.2C179.759 36.2 181.135 35.208 182.287 33.224V15.512H189.871V41ZM203.419 15.512V41H195.835V15.512H203.419ZM199.579 2.072C200.891 2.072 201.963 2.488 202.795 3.32C203.659 4.12 204.091 5.144 204.091 6.392C204.091 7.64 203.659 8.68 202.795 9.512C201.963 10.312 200.891 10.712 199.579 10.712C198.267 10.712 197.195 10.312 196.363 9.512C195.531 8.68 195.115 7.64 195.115 6.392C195.115 5.144 195.531 4.12 196.363 3.32C197.195 2.488 198.267 2.072 199.579 2.072ZM227.334 15.512V20.84L215.814 35.24H227.574L226.902 41H207.03V35.624L218.598 21.224H208.038V15.512H227.334ZM260.66 23.384C262.868 23.8 264.66 24.616 266.036 25.832C267.444 27.048 268.148 28.872 268.148 31.304C268.148 34.856 266.868 37.368 264.308 38.84C261.78 40.28 258.228 41 253.652 41H242.948V7.736H252.356C257.028 7.736 260.596 8.408 263.06 9.752C265.524 11.064 266.756 13.224 266.756 16.232C266.756 18.184 266.164 19.768 264.98 20.984C263.828 22.168 262.388 22.968 260.66 23.384ZM250.82 13.304V21.032H253.748C257.076 21.032 258.74 19.688 258.74 17C258.74 15.656 258.292 14.712 257.396 14.168C256.5 13.592 255.076 13.304 253.124 13.304H250.82ZM253.7 35.288C255.78 35.288 257.348 34.984 258.404 34.376C259.492 33.736 260.036 32.568 260.036 30.872C260.036 27.8 258.116 26.264 254.276 26.264H250.82V35.288H253.7ZM286.253 14.792C287.181 14.792 288.029 14.904 288.797 15.128L287.597 22.472C286.637 22.248 285.869 22.136 285.293 22.136C283.789 22.136 282.637 22.664 281.837 23.72C281.069 24.744 280.461 26.296 280.013 28.376V41H272.429V15.512H279.053L279.677 20.456C280.253 18.696 281.117 17.32 282.269 16.328C283.453 15.304 284.781 14.792 286.253 14.792ZM299.279 15.512V41H291.695V15.512H299.279ZM295.439 2.072C296.751 2.072 297.823 2.488 298.655 3.32C299.519 4.12 299.951 5.144 299.951 6.392C299.951 7.64 299.519 8.68 298.655 9.512C297.823 10.312 296.751 10.712 295.439 10.712C294.127 10.712 293.055 10.312 292.223 9.512C291.391 8.68 290.975 7.64 290.975 6.392C290.975 5.144 291.391 4.12 292.223 3.32C293.055 2.488 294.127 2.072 295.439 2.072ZM321.226 39.8C320.298 40.44 319.21 40.936 317.962 41.288C316.746 41.64 315.53 41.816 314.314 41.816C308.746 41.784 305.962 38.712 305.962 32.6V20.792H302.362V15.512H305.962V9.992L313.546 9.128V15.512H319.402L318.586 20.792H313.546V32.504C313.546 33.688 313.738 34.536 314.122 35.048C314.506 35.56 315.114 35.816 315.946 35.816C316.81 35.816 317.722 35.544 318.682 35L321.226 39.8ZM333.954 14.696C337.858 14.696 340.914 15.896 343.122 18.296C345.33 20.664 346.434 23.992 346.434 28.28C346.434 31 345.922 33.384 344.898 35.432C343.906 37.448 342.466 39.016 340.578 40.136C338.722 41.256 336.514 41.816 333.954 41.816C330.082 41.816 327.026 40.632 324.786 38.264C322.578 35.864 321.474 32.52 321.474 28.232C321.474 25.512 321.97 23.144 322.962 21.128C323.986 19.08 325.426 17.496 327.282 16.376C329.17 15.256 331.394 14.696 333.954 14.696ZM333.954 20.264C332.418 20.264 331.266 20.92 330.498 22.232C329.73 23.512 329.346 25.512 329.346 28.232C329.346 31.016 329.714 33.048 330.45 34.328C331.218 35.608 332.386 36.248 333.954 36.248C335.49 36.248 336.642 35.608 337.41 34.328C338.178 33.016 338.562 31 338.562 28.28C338.562 25.496 338.178 23.464 337.41 22.184C336.674 20.904 335.522 20.264 333.954 20.264Z" fill="#141414"/>
</svg>
