<svg width="32" height="32" viewBox="0 0 32 32" fill="none" xmlns="http://www.w3.org/2000/svg">
<path d="M21.2304 15.1995C21.2304 16.1755 20.4075 16.9755 19.3652 16.9755C18.3411 16.9755 17.5 16.1755 17.5 15.1995C17.5 14.2235 18.3228 13.4234 19.3652 13.4234C20.4075 13.4234 21.2304 14.2235 21.2304 15.1995ZM12.6907 13.4234C11.6484 13.4234 10.8255 14.2235 10.8255 15.1995C10.8255 16.1755 11.6666 16.9755 12.6907 16.9755C13.733 16.9755 14.5559 16.1755 14.5559 15.1995C14.5742 14.2235 13.733 13.4234 12.6907 13.4234ZM32.001 3.29512V32C27.3941 28.4378 28.8675 29.6169 23.5161 25.2638L24.4853 28.2239H3.74869C1.68234 28.2239 0 26.7518 0 24.9278V3.29512C0 1.47107 1.68234 -0.000976562 3.74869 -0.000976562H28.2523C30.3186 -0.000976562 32.001 1.47107 32.001 3.29512ZM26.7894 18.4636C26.7894 13.3114 24.1562 9.1353 24.1562 9.1353C21.5229 7.40725 19.0177 7.45525 19.0177 7.45525L18.7617 7.71126C21.8704 8.54328 23.315 9.74332 23.315 9.74332C18.9712 7.6602 13.8687 7.65982 9.65515 9.27931C8.97856 9.55131 8.57626 9.74332 8.57626 9.74332C8.57626 9.74332 10.094 8.47928 13.3856 7.64726L13.2027 7.45525C13.2027 7.45525 10.6975 7.40725 8.06425 9.1353C8.06425 9.1353 5.43102 13.3114 5.43102 18.4636C5.43102 18.4636 6.96707 20.7837 11.0083 20.8957C11.0083 20.8957 11.6849 20.1756 12.2335 19.5676C9.91116 18.9596 9.03342 17.6796 9.03342 17.6796C9.30243 17.8443 9.74601 18.0579 9.78316 18.0796C12.8697 19.592 17.254 20.0875 21.1938 18.6396C21.8338 18.4316 22.547 18.1276 23.2967 17.6956C23.2967 17.6956 22.3824 19.0076 19.9869 19.5996C20.5355 20.2076 21.1938 20.8957 21.1938 20.8957C25.2351 20.7837 26.7894 18.4636 26.7894 18.4636Z" fill="white"/>
</svg>
