<svg width="14" height="18" viewBox="0 0 14 18" fill="none" xmlns="http://www.w3.org/2000/svg">
<path d="M8.16667 4.78125V0H0.875C0.390104 0 0 0.376172 0 0.84375V17.1562C0 17.6238 0.390104 18 0.875 18H13.125C13.6099 18 14 17.6238 14 17.1562V5.625H9.04167C8.56042 5.625 8.16667 5.24531 8.16667 4.78125ZM10.9539 12.2119L7.43859 15.5763C7.19615 15.8087 6.80458 15.8087 6.56214 15.5763L3.04682 12.2119C2.67677 11.8579 2.93635 11.25 3.45698 11.25H5.83333V8.4375C5.83333 8.12672 6.09438 7.875 6.41667 7.875H7.58333C7.90563 7.875 8.16667 8.12672 8.16667 8.4375V11.25H10.543C11.0636 11.25 11.3232 11.8579 10.9539 12.2119ZM13.7448 3.69141L10.1755 0.246094C10.0115 0.0878906 9.78906 0 9.55573 0H9.33333V4.5H14V4.28555C14 4.06406 13.9089 3.84961 13.7448 3.69141Z" fill="#292929"/>
</svg>
