<svg width="32" height="32" viewBox="0 0 32 32" fill="none" xmlns="http://www.w3.org/2000/svg">
<path d="M19.4839 7.93701V13.414L21.3999 14.619C21.4691 14.6342 21.5407 14.6342 21.6099 14.619L29.8479 9.06501C29.8419 8.79546 29.7433 8.5362 29.5686 8.33078C29.394 8.12537 29.154 7.98632 28.8889 7.93701H19.4839Z" fill="white"/>
<path d="M19.484 15.4568L21.2311 16.6568C21.3128 16.7066 21.4068 16.733 21.5026 16.733C21.5983 16.733 21.6923 16.7066 21.774 16.6568C21.474 16.8378 29.847 11.2788 29.847 11.2788V21.3448C29.8689 21.5488 29.8459 21.7551 29.7797 21.9492C29.7134 22.1434 29.6056 22.3207 29.4637 22.4688C29.3218 22.6169 29.1492 22.7323 28.958 22.8067C28.7669 22.8811 28.5618 22.9129 28.357 22.8998H19.483V15.4568H19.484ZM10.44 12.9318C10.1498 12.9304 9.86454 13.0076 9.61455 13.1551C9.36456 13.3026 9.15914 13.515 9.02005 13.7698C8.64017 14.4452 8.45789 15.2138 8.49405 15.9878C8.45457 16.7602 8.6371 17.5278 9.02005 18.1998C9.15856 18.4441 9.35892 18.6476 9.60101 18.79C9.8431 18.9323 10.1184 19.0084 10.3992 19.0106C10.68 19.0128 10.9565 18.9411 11.2008 18.8027C11.4451 18.6642 11.6487 18.4639 11.7911 18.2218C12.1698 17.5529 12.3486 16.7893 12.306 16.0218C12.3494 15.2302 12.1766 14.4417 11.806 13.7408C11.6736 13.4943 11.4764 13.2887 11.2357 13.1461C10.9949 13.0036 10.7198 12.9295 10.44 12.9318Z" fill="white"/>
<path d="M2.15283 5.155V26.582L18.4528 30V2L2.15283 5.155ZM13.0608 19.491C12.7559 19.9209 12.3505 20.2696 11.8799 20.5068C11.4092 20.744 10.8877 20.8626 10.3608 20.852C9.84718 20.8611 9.33892 20.7461 8.87928 20.5166C8.41965 20.2871 8.02223 19.95 7.72083 19.534C7.00602 18.536 6.64844 17.3262 6.70583 16.1C6.64502 14.8136 7.00907 13.543 7.74183 12.484C8.0506 12.0459 8.4624 11.6906 8.94093 11.4492C9.41946 11.2078 9.95002 11.0879 10.4858 11.1C10.9958 11.0898 11.5004 11.2049 11.9555 11.4352C12.4106 11.6655 12.8021 12.004 13.0958 12.421C13.8035 13.4406 14.155 14.6653 14.0958 15.905C14.1582 17.182 13.7941 18.4436 13.0608 19.491Z" fill="white"/>
</svg>
