<svg width="32" height="32" viewBox="0 0 32 32" fill="none" xmlns="http://www.w3.org/2000/svg">
<g clip-path="url(#clip0_431_624)">
<path d="M28.5714 -0.000976562H3.42857C1.53571 -0.000976562 0 1.53474 0 3.4276V28.5705C0 30.4633 1.53571 31.999 3.42857 31.999H28.5714C30.4643 31.999 32 30.4633 32 28.5705V3.4276C32 1.53474 30.4643 -0.000976562 28.5714 -0.000976562ZM19.8071 27.4062C19.2071 27.5133 18.9857 27.1419 18.9857 26.8347C18.9857 26.449 19 24.4776 19 22.8847C19 21.7705 18.6286 21.0633 18.1929 20.6919C20.8357 20.399 23.6214 20.0347 23.6214 15.4705C23.6214 14.1705 23.1571 13.5205 22.4 12.6847C22.5214 12.3776 22.9286 11.1133 22.2786 9.47045C21.2857 9.16331 19.0143 10.749 19.0143 10.749C18.0714 10.4847 17.05 10.349 16.0429 10.349C15.0357 10.349 14.0143 10.4847 13.0714 10.749C13.0714 10.749 10.8 9.16331 9.80714 9.47045C9.15714 11.1062 9.55714 12.3705 9.68571 12.6847C8.92857 13.5205 8.57143 14.1705 8.57143 15.4705C8.57143 20.0133 11.2357 20.399 13.8786 20.6919C13.5357 20.999 13.2286 21.5276 13.1214 22.2847C12.4429 22.5919 10.7071 23.1205 9.67143 21.2919C9.02143 20.1633 7.85 20.0705 7.85 20.0705C6.69286 20.0562 7.77143 20.799 7.77143 20.799C8.54286 21.1562 9.08571 22.5276 9.08571 22.5276C9.77857 24.649 13.0929 23.9347 13.0929 23.9347C13.0929 24.9276 13.1071 26.5419 13.1071 26.8347C13.1071 27.1419 12.8929 27.5133 12.2857 27.4062C7.57143 25.8276 4.27143 21.3419 4.27143 16.099C4.27143 9.54188 9.28572 4.56331 15.8429 4.56331C22.4 4.56331 27.7143 9.54188 27.7143 16.099C27.7214 21.3419 24.5214 25.8347 19.8071 27.4062ZM12.8 23.0419C12.6643 23.0705 12.5357 23.0133 12.5214 22.9205C12.5071 22.8133 12.6 22.7205 12.7357 22.6919C12.8714 22.6776 13 22.7347 13.0143 22.8276C13.0357 22.9205 12.9429 23.0133 12.8 23.0419ZM12.1214 22.9776C12.1214 23.0705 12.0143 23.149 11.8714 23.149C11.7143 23.1633 11.6071 23.0847 11.6071 22.9776C11.6071 22.8847 11.7143 22.8062 11.8571 22.8062C11.9929 22.7919 12.1214 22.8705 12.1214 22.9776ZM11.1429 22.899C11.1143 22.9919 10.9714 23.0347 10.85 22.9919C10.7143 22.9633 10.6214 22.8562 10.65 22.7633C10.6786 22.6705 10.8214 22.6276 10.9429 22.6562C11.0857 22.699 11.1786 22.8062 11.1429 22.899ZM10.2643 22.5133C10.2 22.5919 10.0643 22.5776 9.95714 22.4705C9.85 22.3776 9.82143 22.2419 9.89286 22.1776C9.95714 22.099 10.0929 22.1133 10.2 22.2205C10.2929 22.3133 10.3286 22.4562 10.2643 22.5133ZM9.61429 21.8633C9.55 21.9062 9.42857 21.8633 9.35 21.7562C9.27143 21.649 9.27143 21.5276 9.35 21.4776C9.42857 21.4133 9.55 21.4633 9.61429 21.5705C9.69286 21.6776 9.69286 21.8062 9.61429 21.8633ZM9.15 21.1705C9.08572 21.2347 8.97857 21.199 8.9 21.1276C8.82143 21.0347 8.80714 20.9276 8.87143 20.8776C8.93571 20.8133 9.04286 20.849 9.12143 20.9205C9.2 21.0133 9.21429 21.1205 9.15 21.1705ZM8.67143 20.6419C8.64286 20.7062 8.55 20.7205 8.47143 20.6705C8.37857 20.6276 8.33571 20.549 8.36429 20.4847C8.39286 20.4419 8.47143 20.4205 8.56429 20.4562C8.65714 20.5062 8.7 20.5847 8.67143 20.6419Z" fill="white"/>
</g>
<defs>
<clipPath id="clip0_431_624">
<rect width="32" height="32" fill="white" transform="translate(0 -0.000976562)"/>
</clipPath>
</defs>
</svg>
