<svg width="41" height="55" viewBox="0 0 41 55" fill="none" xmlns="http://www.w3.org/2000/svg">
<mask id="mask0_447_2" style="mask-type:alpha" maskUnits="userSpaceOnUse" x="0" y="1" width="32" height="43">
<path d="M0 12.5674C0 10.3214 1.49768 8.35098 3.66178 7.74984L24.9681 1.83142C28.1541 0.946423 31.3063 3.3424 31.3063 6.64901V32.7944C31.3063 35.0404 29.8086 37.0109 27.6445 37.612L6.33822 43.5304C3.15224 44.4154 0 42.0194 0 38.7128V12.5674Z" fill="#70DA1C"/>
</mask>
<g mask="url(#mask0_447_2)">
<rect x="1.30444" y="-0.450806" width="31.3933" height="50.0901" fill="#70DA1C"/>
</g>
<mask id="mask1_447_2" style="mask-type:alpha" maskUnits="userSpaceOnUse" x="8" y="10" width="33" height="43">
<path d="M8.99316 21.4737C8.99316 19.2276 10.4908 17.2572 12.6549 16.6561L33.9613 10.7377C37.1472 9.85267 40.2995 12.2486 40.2995 15.5553V41.7007C40.2995 43.9467 38.8018 45.9171 36.6377 46.5182L15.3314 52.4367C12.1454 53.3217 8.99316 50.9257 8.99316 47.6191V21.4737Z" fill="#70DA1C"/>
</mask>
<g mask="url(#mask1_447_2)">
<rect x="10.2976" y="8.45544" width="31.3933" height="50.0901" fill="#CCF235"/>
</g>
<mask id="mask2_447_2" style="mask-type:alpha" maskUnits="userSpaceOnUse" x="4" y="6" width="32" height="43">
<path d="M4.54004 17.1944C4.54004 14.9483 6.03772 12.9779 8.20182 12.3768L29.5081 6.45837C32.6941 5.57338 35.8464 7.96935 35.8464 11.276V37.4214C35.8464 39.6674 34.3487 41.6378 32.1846 42.2389L10.8783 48.1574C7.69228 49.0424 4.54004 46.6464 4.54004 43.3398V17.1944Z" fill="#D9D9D9"/>
</mask>
<g mask="url(#mask2_447_2)">
<rect x="5.84448" y="4.17615" width="31.3933" height="50.0901" fill="#080808"/>
</g>
<path d="M21 37.9375C27.0406 37.9375 31.9375 33.0406 31.9375 27C31.9375 20.9594 27.0406 16.0625 21 16.0625C14.9594 16.0625 10.0625 20.9594 10.0625 27C10.0625 33.0406 14.9594 37.9375 21 37.9375Z" fill="white"/>
<path d="M21 28.1813C21.6645 28.1813 22.2031 27.6426 22.2031 26.9781C22.2031 26.3137 21.6645 25.775 21 25.775C20.3355 25.775 19.7969 26.3137 19.7969 26.9781C19.7969 27.6426 20.3355 28.1813 21 28.1813Z" fill="black"/>
<path d="M27.0375 25.7969C26.6219 25.4469 26.0313 25.1406 25.3313 24.9C25.2001 24.8563 25.0469 24.8125 24.8938 24.7688C24.9157 24.6594 24.9375 24.5719 24.9594 24.4625C25.2875 22.8438 25.0469 21.575 24.3469 21.1594C23.9969 20.9625 23.5157 20.9625 22.9688 21.1594C22.4657 21.3563 21.8969 21.7063 21.35 22.1875C21.2407 22.275 21.1313 22.3844 21.0219 22.4938C20.9563 22.4281 20.8688 22.3625 20.8032 22.2969C19.5782 21.2031 18.3532 20.7656 17.6313 21.1813C17.2813 21.3781 17.0407 21.7938 16.9313 22.3844C16.8438 22.9094 16.8657 23.5875 17.0188 24.3094C17.0407 24.4625 17.0844 24.5938 17.1282 24.7469C16.9532 24.7906 16.7782 24.8563 16.625 24.9C15.1594 25.4031 14.2844 26.1906 14.2844 26.9781C14.2844 27.3938 14.525 27.8313 14.9844 28.2031C15.4219 28.575 16.0344 28.9031 16.7344 29.1438C16.8438 29.1875 16.975 29.2313 17.1063 29.2531C17.0625 29.4063 17.0407 29.5813 16.9969 29.7344C16.7125 31.2438 16.9532 32.4031 17.6313 32.7969C17.8063 32.9063 18.025 32.95 18.2657 32.95C18.5063 32.95 18.7688 32.9063 19.0532 32.7969C19.6 32.6 20.1688 32.25 20.7375 31.7469C20.825 31.6594 20.9344 31.5719 21.0219 31.4844C21.1532 31.5938 21.2626 31.7031 21.3938 31.8125C22.2469 32.5563 23.0782 32.95 23.7344 32.95C23.975 32.95 24.1938 32.9063 24.3688 32.7969C24.7188 32.5781 24.9813 32.1625 25.0907 31.5719C25.2 31.0031 25.1782 30.325 25.0251 29.5813C25.0032 29.4719 24.9813 29.3406 24.9375 29.2312C25.025 29.2094 25.1125 29.1875 25.1782 29.1438C26.7532 28.6188 27.7157 27.7875 27.7157 26.9563C27.7157 26.5844 27.475 26.1688 27.0375 25.7969ZM23.1657 21.7063C23.5594 21.575 23.8657 21.5531 24.0625 21.6625C24.4563 21.8812 24.7188 22.8219 24.4125 24.3531C24.3907 24.4406 24.3688 24.5281 24.3469 24.6156C23.7782 24.4844 23.1875 24.3969 22.5532 24.3313C22.1813 23.8063 21.8094 23.325 21.4157 22.9094C21.525 22.8 21.6126 22.7125 21.7219 22.625C22.2251 22.1875 22.7282 21.8813 23.1657 21.7063ZM22.8813 28.0938C22.6625 28.4656 22.4657 28.8156 22.2469 29.1219C21.8532 29.1437 21.4375 29.1656 21.0219 29.1656C20.6063 29.1656 20.1907 29.1437 19.7969 29.1219C19.5782 28.7937 19.3375 28.4438 19.1407 28.0719C18.9219 27.7219 18.7469 27.35 18.5719 26.9781C18.7469 26.6063 18.9438 26.2563 19.1407 25.9063C19.3594 25.5563 19.5782 25.2063 19.7969 24.8563C20.1907 24.8344 20.6063 24.8125 21.0219 24.8125C21.4375 24.8125 21.8532 24.8344 22.2469 24.8563C22.4657 25.1844 22.6844 25.5344 22.9032 25.8844C23.1219 26.2563 23.3188 26.6063 23.4938 26.9563C23.275 27.35 23.1 27.7219 22.8813 28.0938ZM23.7563 27.6563C23.9313 28.0719 24.0844 28.4656 24.2157 28.8375C23.8219 28.925 23.4063 28.9906 22.9688 29.0563C23.1 28.8375 23.2532 28.5969 23.3844 28.3781C23.5157 28.1375 23.6469 27.8969 23.7563 27.6563ZM21.0219 30.6969C20.7594 30.4125 20.475 30.0844 20.2125 29.7344C20.475 29.7344 20.7375 29.7563 21 29.7563C21.2844 29.7563 21.5469 29.7563 21.8094 29.7344C21.5469 30.0844 21.2844 30.4125 21.0219 30.6969ZM19.0532 29.0563C18.6157 29.0125 18.2 28.9469 17.8063 28.8594C17.9157 28.4656 18.0688 28.0719 18.2438 27.6781C18.375 27.9188 18.4844 28.1375 18.6157 28.3781C18.7688 28.6188 18.9 28.8375 19.0532 29.0563ZM18.6375 25.6219C18.5063 25.8625 18.375 26.0813 18.2657 26.3219C18.0907 25.9281 17.9594 25.5344 17.8282 25.1625C18.2219 25.075 18.6157 25.0094 19.0532 24.9437C18.9 25.1625 18.7688 25.4031 18.6375 25.6219ZM21 23.325C21.2625 23.6094 21.525 23.9375 21.7875 24.2875C21.525 24.2656 21.2625 24.2656 20.9782 24.2656C20.7157 24.2656 20.4532 24.2656 20.1907 24.2875C20.475 23.9375 20.7375 23.6094 21 23.325ZM23.3626 25.6219C23.2313 25.3813 23.1 25.1625 22.9469 24.9437C23.3844 24.9875 23.7782 25.075 24.1719 25.1625C24.0625 25.5344 23.9094 25.9281 23.7344 26.3219C23.6469 26.1031 23.5157 25.8625 23.3626 25.6219ZM17.5657 24.2C17.4344 23.5438 17.4125 22.9531 17.5 22.4938C17.5657 22.1 17.7188 21.8156 17.9157 21.6844C18.3094 21.4656 19.25 21.6844 20.4094 22.7344C20.475 22.8 20.5407 22.8656 20.6063 22.9313C20.2125 23.3469 19.8407 23.8281 19.4688 24.3531C18.8344 24.4188 18.2219 24.5063 17.675 24.6375C17.6313 24.4625 17.6094 24.3313 17.5657 24.2ZM16.9313 28.6188C15.5094 28.1375 14.8532 27.4375 14.8532 26.9781C14.8532 26.5406 15.4657 25.9063 16.8 25.4469C16.9532 25.4031 17.1063 25.3375 17.2594 25.2938C17.4344 25.8406 17.6532 26.4094 17.9157 27C17.6532 27.5906 17.4125 28.1594 17.2594 28.7281C17.15 28.6844 17.0407 28.6625 16.9313 28.6188ZM18.2657 32.4031C18.1125 32.4031 18.0032 32.3813 17.9157 32.3156C17.5438 32.0969 17.2813 31.2656 17.5657 29.8656C17.5875 29.7125 17.6313 29.5813 17.6532 29.4281C18.2 29.5594 18.8125 29.6469 19.4688 29.6906C19.8407 30.2156 20.2344 30.6969 20.6282 31.1125C20.5407 31.2 20.4532 31.2656 20.3657 31.3531C19.5125 32.0969 18.7469 32.4031 18.2657 32.4031ZM24.4563 29.7125C24.7407 31.1781 24.4563 32.0969 24.0844 32.3156C23.7125 32.5344 22.8594 32.3375 21.7875 31.3969C21.6782 31.3094 21.5688 31.2 21.4594 31.0906C21.8313 30.675 22.2251 30.1937 22.5969 29.6687C23.2532 29.6031 23.8657 29.5156 24.4125 29.3844C24.4125 29.4938 24.4344 29.6031 24.4563 29.7125ZM25.0032 28.6188C24.9376 28.6406 24.8501 28.6625 24.7844 28.6844C24.6094 28.1594 24.3907 27.5688 24.1063 26.9781C24.3688 26.4094 24.5875 25.8406 24.7625 25.2938C24.8938 25.3375 25.025 25.3813 25.1563 25.425C25.7907 25.6438 26.3157 25.9281 26.6657 26.2125C26.9719 26.475 27.1469 26.7375 27.1469 26.9781C27.1469 27.4375 26.4688 28.1375 25.0032 28.6188Z" fill="black"/>
</svg>
