<svg width="41" height="55" viewBox="0 0 41 55" fill="none" xmlns="http://www.w3.org/2000/svg">
<mask id="mask0_447_53" style="mask-type:alpha" maskUnits="userSpaceOnUse" x="0" y="1" width="32" height="43">
<path d="M0 12.4966C0 10.2506 1.49768 8.28018 3.66178 7.67904L24.9681 1.76062C28.1541 0.875622 31.3063 3.2716 31.3063 6.57821V32.7236C31.3063 34.9696 29.8086 36.9401 27.6445 37.5412L6.33822 43.4596C3.15224 44.3446 0 41.9486 0 38.642V12.4966Z" fill="#70DA1C"/>
</mask>
<g mask="url(#mask0_447_53)">
<rect x="1.30444" y="-0.521606" width="31.3933" height="50.0901" fill="#70DA1C"/>
</g>
<mask id="mask1_447_53" style="mask-type:alpha" maskUnits="userSpaceOnUse" x="8" y="10" width="33" height="43">
<path d="M8.99316 21.4029C8.99316 19.1568 10.4908 17.1864 12.6549 16.5853L33.9613 10.6669C37.1472 9.78187 40.2995 12.1778 40.2995 15.4845V41.6299C40.2995 43.8759 38.8018 45.8463 36.6377 46.4474L15.3314 52.3659C12.1454 53.2509 8.99316 50.8549 8.99316 47.5483V21.4029Z" fill="#70DA1C"/>
</mask>
<g mask="url(#mask1_447_53)">
<rect x="10.2976" y="8.38464" width="31.3933" height="50.0901" fill="#CCF235"/>
</g>
<mask id="mask2_447_53" style="mask-type:alpha" maskUnits="userSpaceOnUse" x="4" y="6" width="32" height="43">
<path d="M4.54004 17.1236C4.54004 14.8775 6.03772 12.9071 8.20182 12.306L29.5081 6.38757C32.6941 5.50258 35.8464 7.89855 35.8464 11.2052V37.3506C35.8464 39.5966 34.3487 41.567 32.1846 42.1681L10.8783 48.0866C7.69228 48.9716 4.54004 46.5756 4.54004 43.269V17.1236Z" fill="#D9D9D9"/>
</mask>
<g mask="url(#mask2_447_53)">
<rect x="5.84448" y="4.10535" width="31.3933" height="50.0901" fill="#080808"/>
</g>
<path d="M20.9375 36.8042C26.9781 36.8042 31.875 31.9073 31.875 25.8667C31.875 19.8261 26.9781 14.9292 20.9375 14.9292C14.8969 14.9292 10 19.8261 10 25.8667C10 31.9073 14.8969 36.8042 20.9375 36.8042Z" fill="white"/>
<path d="M17.525 21.6229H19.4281V26.9823C19.4281 29.3885 18.2688 30.2417 16.4313 30.2417C15.9719 30.2417 15.4031 30.176 15.0312 30.0448L15.25 28.4917C15.5125 28.5792 15.8625 28.6448 16.2344 28.6448C17.0437 28.6448 17.5469 28.2729 17.5469 26.9823L17.525 21.6229Z" fill="#323330"/>
<path d="M21.1125 28.1417C21.6156 28.4042 22.425 28.6667 23.2344 28.6667C24.1094 28.6667 24.5687 28.2948 24.5687 27.7261C24.5687 27.2011 24.175 26.8948 23.1469 26.5448C21.7469 26.0417 20.8063 25.2542 20.8063 24.0073C20.8063 22.5854 22.0312 21.4917 24.0219 21.4917C24.9844 21.4917 25.6844 21.6886 26.1875 21.9292L25.75 23.4604C25.4219 23.3073 24.8094 23.0667 24 23.0667C23.1688 23.0667 22.775 23.4604 22.775 23.8761C22.775 24.4229 23.2344 24.6636 24.35 25.0792C25.8375 25.6261 26.5375 26.4136 26.5375 27.6167C26.5375 29.0386 25.4656 30.2417 23.125 30.2417C22.1625 30.2417 21.2 29.9792 20.7188 29.7167L21.1125 28.1417Z" fill="#323330"/>
</svg>
