<svg width="41" height="55" viewBox="0 0 41 55" fill="none" xmlns="http://www.w3.org/2000/svg">
<mask id="mask0_447_90" style="mask-type:alpha" maskUnits="userSpaceOnUse" x="0" y="1" width="32" height="43">
<path d="M0 12.4966C0 10.2506 1.49768 8.28018 3.66178 7.67904L24.9681 1.76062C28.1541 0.875622 31.3063 3.2716 31.3063 6.57821V32.7236C31.3063 34.9696 29.8086 36.9401 27.6445 37.5412L6.33822 43.4596C3.15224 44.3446 0 41.9486 0 38.642V12.4966Z" fill="#70DA1C"/>
</mask>
<g mask="url(#mask0_447_90)">
<rect x="1.30444" y="-0.521606" width="31.3933" height="50.0901" fill="#70DA1C"/>
</g>
<mask id="mask1_447_90" style="mask-type:alpha" maskUnits="userSpaceOnUse" x="8" y="10" width="33" height="43">
<path d="M8.99316 21.4029C8.99316 19.1568 10.4908 17.1864 12.6549 16.5853L33.9613 10.6669C37.1472 9.78187 40.2995 12.1778 40.2995 15.4845V41.6299C40.2995 43.8759 38.8018 45.8463 36.6377 46.4474L15.3314 52.3659C12.1454 53.2509 8.99316 50.8549 8.99316 47.5483V21.4029Z" fill="#70DA1C"/>
</mask>
<g mask="url(#mask1_447_90)">
<rect x="10.2976" y="8.38464" width="31.3933" height="50.0901" fill="#CCF235"/>
</g>
<mask id="mask2_447_90" style="mask-type:alpha" maskUnits="userSpaceOnUse" x="4" y="6" width="32" height="43">
<path d="M4.54004 17.1236C4.54004 14.8775 6.03772 12.9071 8.20182 12.306L29.5081 6.38757C32.6941 5.50258 35.8464 7.89855 35.8464 11.2052V37.3506C35.8464 39.5966 34.3487 41.567 32.1846 42.1681L10.8783 48.0866C7.69228 48.9716 4.54004 46.5756 4.54004 43.269V17.1236Z" fill="#D9D9D9"/>
</mask>
<g mask="url(#mask2_447_90)">
<rect x="5.84448" y="4.10535" width="31.3933" height="50.0901" fill="#080808"/>
</g>
<path d="M19.94 37.88C25.982 37.88 30.88 32.982 30.88 26.94C30.88 20.898 25.982 16 19.94 16C13.898 16 9 20.898 9 26.94C9 32.982 13.898 37.88 19.94 37.88Z" fill="white"/>
<path d="M17.927 29.7844L18.299 29.5656L17.8833 29.675C17.2706 29.85 17.1831 30.0469 17.1831 30.2001C17.2269 30.5939 18.2333 30.9002 19.393 30.9002C20.0056 30.9002 20.9027 30.8127 21.8217 30.4189L21.9529 30.3751L21.8217 30.3314C21.4059 30.1563 21.0777 29.9813 21.0777 29.9813L21.0559 29.9594H21.034C20.2901 30.0907 19.8306 30.1563 19.3492 30.1563C19.0429 30.1563 18.7147 30.1344 18.2552 30.0907C17.8395 30.0469 17.7957 29.9594 17.7957 29.9375C17.7957 29.8719 17.8614 29.8062 17.927 29.7844Z" fill="black"/>
<path d="M22.2374 28.9311L22.0842 28.8655C21.756 28.7561 21.5591 28.5373 21.5372 28.5373L21.5154 28.5154H21.4935C20.5964 28.6905 19.8962 28.7561 19.1961 28.7561C18.8022 28.7561 18.4084 28.7342 17.8833 28.6686C17.5332 28.6248 17.4457 28.5373 17.4457 28.4935C17.4238 28.406 17.5551 28.2747 17.5988 28.231L17.8614 28.0341L17.5332 28.1435C16.9862 28.3185 16.7236 28.5154 16.7674 28.7342C16.833 29.1062 17.7958 29.3469 19.1304 29.3469C20.115 29.3469 21.1653 29.1937 22.0624 28.9311H22.2374Z" fill="black"/>
<path d="M19.7213 23.9863C19.5463 24.5333 19.7213 25.1459 20.2683 25.7585C20.4433 25.9555 20.5309 26.1743 20.509 26.3931C20.4652 26.8088 20.1151 27.1151 20.1151 27.1151L19.7213 27.4433L20.1808 27.2026C20.2245 27.1807 21.1216 26.7213 21.2748 26.0211C21.3404 25.7367 21.2748 25.4522 21.0997 25.1897L21.0122 25.0584C20.7278 24.6427 20.4871 24.3363 20.5746 23.9644C20.684 23.4611 21.3623 22.8923 22.7845 22.0608L23.1127 21.8639L22.7407 21.9514C22.6095 21.9952 20.137 22.6078 19.7213 23.9863Z" fill="black"/>
<path d="M19.0429 32.2131C21.9529 32.2131 24.0096 31.6661 24.119 31.141C24.1409 31.0535 24.0971 30.9003 23.8346 30.769L23.4626 30.594L23.7689 30.8566C23.7689 30.8566 23.8565 30.9222 23.8346 31.0097C23.8127 31.0754 23.7471 31.2066 23.3532 31.316C22.5874 31.5786 20.837 31.7536 19.1085 31.7536C17.4894 31.7536 16.2422 31.6224 15.6952 31.3817C15.6296 31.3598 15.5858 31.316 15.5858 31.2942C15.6077 31.1848 16.0672 30.9878 16.3954 30.9222C16.6142 30.8784 16.7455 30.8784 16.8111 30.8784C16.833 30.8784 16.833 30.8784 16.833 30.8784L17.0299 30.9003L16.8767 30.7472C16.7892 30.6815 16.6579 30.6596 16.4829 30.6596C15.8484 30.6596 14.645 31.0972 14.6012 31.4911C14.5793 31.688 14.82 31.8412 15.3233 31.9068C16.5704 32.1037 17.8176 32.2131 19.0429 32.2131Z" fill="black"/>
<path d="M18.496 27.9465C19.8306 27.9465 21.0778 27.8152 21.9749 27.5745H21.9968C22.2593 27.3995 22.6094 27.2463 22.6094 27.2463L23.047 27.0494L22.5656 27.1588C22.5656 27.1588 21.5373 27.3338 20.5308 27.4213C19.8306 27.487 19.0867 27.5089 18.4522 27.5089C17.9708 27.5089 17.5551 27.487 17.2926 27.4432C16.8112 27.3776 16.8112 27.2901 16.8112 27.2901C16.8112 27.1588 17.5114 26.9181 18.1678 26.7431L18.5178 26.6555L18.1678 26.6337C18.1678 26.6337 18.124 26.6337 18.0802 26.6337C17.7739 26.6337 16.9644 26.6774 16.0235 27.1369C15.936 27.1807 15.7172 27.2901 15.7391 27.4432C15.7828 27.8371 17.2488 27.9465 18.496 27.9465Z" fill="black"/>
<path d="M22.7844 26.8088L22.6969 26.9619L22.8501 26.8963C22.8501 26.8963 22.9376 26.8525 23.1345 26.8306C23.1783 26.8306 23.222 26.8088 23.2877 26.8088C23.594 26.8088 23.966 27.0057 24.0535 27.3776C24.1191 27.6402 24.0972 28.3404 22.5656 29.128H22.5438V29.1499C22.5438 29.1718 22.5219 29.1937 22.5 29.1937L22.325 29.3468L22.5438 29.2812C24.2723 28.8217 24.8193 28.0122 24.7318 27.3995C24.6661 26.8744 24.1848 26.5024 23.5721 26.5024C23.3971 26.5024 23.222 26.5243 23.047 26.59C22.872 26.6775 22.7844 26.8088 22.7844 26.8088Z" fill="black"/>
<path d="M19.6555 26.7212L19.8525 26.8963L19.7431 26.6556C19.6337 26.393 19.4367 26.1305 19.2617 25.8898C18.6709 25.0365 18.0583 24.1832 19.7212 22.8704C20.8152 22.017 21.3841 21.1637 21.4278 20.3542C21.4716 19.6321 21.0777 19.2383 21.0559 19.2164L20.9246 19.0632L20.9683 19.2602C21.3403 20.7261 20.3338 21.5138 19.3492 22.2796C18.8679 22.6734 18.3646 23.0673 18.0364 23.5268C17.38 24.5332 18.4303 25.6054 19.6555 26.7212Z" fill="black"/>
<path d="M24.6223 31.491C24.6223 31.491 24.4035 31.9067 22.6531 32.2349C21.6466 32.4319 20.4651 32.5194 19.2398 32.5194C18.2333 32.5194 17.2487 32.4537 16.5048 32.3225L16.3079 32.2787L16.4829 32.41C16.5267 32.4319 16.8767 32.6725 18.4302 32.7819C18.8678 32.8038 19.3492 32.8257 19.8087 32.8257C22.1498 32.8257 24.6879 32.4756 24.7535 31.491L24.7754 31.1847L24.6223 31.491Z" fill="black"/>
</svg>
