<svg width="41" height="55" viewBox="0 0 41 55" fill="none" xmlns="http://www.w3.org/2000/svg">
<mask id="mask0_447_21" style="mask-type:alpha" maskUnits="userSpaceOnUse" x="0" y="1" width="32" height="43">
<path d="M0 12.5674C0 10.3214 1.49768 8.35098 3.66178 7.74984L24.9681 1.83142C28.1541 0.946423 31.3063 3.3424 31.3063 6.64901V32.7944C31.3063 35.0404 29.8086 37.0109 27.6445 37.612L6.33822 43.5304C3.15224 44.4154 0 42.0194 0 38.7128V12.5674Z" fill="#70DA1C"/>
</mask>
<g mask="url(#mask0_447_21)">
<rect x="1.30444" y="-0.450806" width="31.3933" height="50.0901" fill="#70DA1C"/>
</g>
<mask id="mask1_447_21" style="mask-type:alpha" maskUnits="userSpaceOnUse" x="8" y="10" width="33" height="43">
<path d="M8.99316 21.4737C8.99316 19.2276 10.4908 17.2572 12.6549 16.6561L33.9613 10.7377C37.1472 9.85267 40.2995 12.2486 40.2995 15.5553V41.7007C40.2995 43.9467 38.8018 45.9171 36.6377 46.5182L15.3314 52.4367C12.1454 53.3217 8.99316 50.9257 8.99316 47.6191V21.4737Z" fill="#70DA1C"/>
</mask>
<g mask="url(#mask1_447_21)">
<rect x="10.2976" y="8.45544" width="31.3933" height="50.0901" fill="#CCF235"/>
</g>
<mask id="mask2_447_21" style="mask-type:alpha" maskUnits="userSpaceOnUse" x="4" y="6" width="32" height="43">
<path d="M4.54004 17.1944C4.54004 14.9483 6.03772 12.9779 8.20182 12.3768L29.5081 6.45837C32.6941 5.57338 35.8464 7.96935 35.8464 11.276V37.4214C35.8464 39.6674 34.3487 41.6378 32.1846 42.2389L10.8783 48.1574C7.69228 49.0424 4.54004 46.6464 4.54004 43.3398V17.1944Z" fill="#D9D9D9"/>
</mask>
<g mask="url(#mask2_447_21)">
<rect x="5.84448" y="4.17615" width="31.3933" height="50.0901" fill="#080808"/>
</g>
<path d="M20 37.9375C26.0406 37.9375 30.9375 33.0406 30.9375 27C30.9375 20.9594 26.0406 16.0625 20 16.0625C13.9594 16.0625 9.0625 20.9594 9.0625 27C9.0625 33.0406 13.9594 37.9375 20 37.9375Z" fill="white"/>
<path d="M14.7937 21.5312L15.7343 32.1406L19.9781 33.3438L24.2437 32.1406L25.2062 21.5312H14.7937ZM23.15 24.9875H18.1625L18.2718 26.3219H23.0187L22.6468 30.3469L20 31.0687H19.9781L17.3093 30.325L17.1562 28.2906H18.4468L18.5343 29.3187L19.9781 29.7125L21.4218 29.3187L21.575 27.6344H17.0906L16.7406 23.6969H23.2593L23.15 24.9875Z" fill="black"/>
</svg>
