<svg width="24" height="28" viewBox="0 0 24 32" fill="none" xmlns="http://www.w3.org/2000/svg">
<g clip-path="url(#clip0_447_107)">
<path d="M12.65 20.3644C12.79 19.8966 12.7 19.3637 12.42 18.9999L10.33 16.3227L10.36 16.2837C12.1 13.7625 13.34 10.8645 14.07 7.79745H16.01C16.55 7.79745 17 7.21264 17 6.51086V6.48487C17 5.7831 16.55 5.19829 16.01 5.19829H10V3.8987C10 3.18393 9.55 2.59912 9 2.59912C8.45 2.59912 8 3.18393 8 3.8987V5.19829H1.99C1.45 5.19829 1 5.7831 1 6.48487C1 7.19964 1.45 7.77146 1.99 7.77146H12.17C11.5 10.2926 10.44 12.6709 9 14.7502C8.19 13.5936 7.51 12.333 6.94 11.0074C6.78 10.6305 6.49 10.3966 6.16 10.3966C5.47 10.3966 5.03 11.3713 5.37 12.1511C6 13.6196 6.77 15.0231 7.67 16.3227L3.3 21.9239C2.9 22.4308 2.9 23.2625 3.3 23.7693C3.69 24.2762 4.32 24.2762 4.72 23.7693L9 18.1941L11.02 20.8193C11.53 21.4821 12.4 21.2351 12.65 20.3644V20.3644ZM17.5 12.9958C16.9 12.9958 16.36 13.4766 16.15 14.2174L12.48 26.9533C12.24 27.746 12.7 28.5908 13.35 28.5908C13.74 28.5908 14.09 28.2789 14.23 27.798L15.12 24.692H19.87L20.77 27.798C20.91 28.2659 21.26 28.5908 21.65 28.5908C22.3 28.5908 22.76 27.746 22.53 26.9533L18.86 14.2174C18.64 13.4766 18.1 12.9958 17.5 12.9958V12.9958ZM15.88 22.0929L17.5 16.4657L19.12 22.0929H15.88V22.0929Z" fill="url(#paint0_linear_447_107)"/>
</g>
<defs>
<linearGradient id="paint0_linear_447_107" x1="11.795" y1="2.59912" x2="11.795" y2="28.5908" gradientUnits="userSpaceOnUse">
<stop stop-color="#B6F829"/>
<stop offset="1" stop-color="#67DD0A"/>
</linearGradient>
<clipPath id="clip0_447_107">
<rect width="24" height="31.19" fill="white"/>
</clipPath>
</defs>
</svg>
