<svg width="16" height="16" viewBox="0 0 16 16" fill="none" xmlns="http://www.w3.org/2000/svg">
<g clip-path="url(#clip0_431_415)">
<path d="M1.71436 12H14.2858V14.2857C14.2858 14.5888 14.1654 14.8795 13.951 15.0938C13.7367 15.3082 13.446 15.4286 13.1429 15.4286H2.85721C2.55411 15.4286 2.26342 15.3082 2.04909 15.0938C1.83476 14.8795 1.71436 14.5888 1.71436 14.2857V12Z" stroke="black" stroke-width="1.14286" stroke-linecap="round" stroke-linejoin="round"/>
<path d="M11.9999 7.42857C11.6968 7.42857 11.4061 7.30816 11.1917 7.09383C10.9774 6.87951 10.857 6.58882 10.857 6.28571V3.42857C10.857 2.67081 10.556 1.94408 10.0202 1.40826C9.48435 0.872446 8.75762 0.571426 7.99986 0.571426C7.2421 0.571426 6.51537 0.872446 5.97956 1.40826C5.44374 1.94408 5.14272 2.67081 5.14272 3.42857V6.28571C5.14272 6.58882 5.02231 6.87951 4.80798 7.09383C4.59366 7.30816 4.30297 7.42857 3.99986 7.42857H2.857C2.25079 7.42857 1.66941 7.66939 1.24076 8.09804C0.812105 8.52669 0.571289 9.10807 0.571289 9.71428V10.8571C0.571289 11.1602 0.691697 11.4509 0.906024 11.6653C1.12035 11.8796 1.41104 12 1.71415 12H14.2856C14.5887 12 14.8794 11.8796 15.0937 11.6653C15.308 11.4509 15.4284 11.1602 15.4284 10.8571V9.71428C15.4284 9.10807 15.1876 8.52669 14.759 8.09804C14.3303 7.66939 13.7489 7.42857 13.1427 7.42857H11.9999Z" stroke="black" stroke-width="1.14286" stroke-linecap="round" stroke-linejoin="round"/>
</g>
<defs>
<clipPath id="clip0_431_415">
<rect width="16" height="16" fill="white"/>
</clipPath>
</defs>
</svg>
