<svg width="372" height="372" viewBox="0 0 372 372" fill="none" xmlns="http://www.w3.org/2000/svg">
<path d="M37.8199 310C37.8199 309.658 37.5423 309.38 37.1999 309.38C36.8574 309.38 36.5799 309.658 36.5799 310H37.8199ZM36.5799 359.6C36.5799 359.942 36.8574 360.22 37.1999 360.22C37.5423 360.22 37.8199 359.942 37.8199 359.6H36.5799ZM61.9998 335.42C62.3421 335.42 62.6198 335.142 62.6198 334.8C62.6198 334.458 62.3421 334.18 61.9998 334.18V335.42ZM12.3998 334.18C12.0574 334.18 11.7798 334.458 11.7798 334.8C11.7798 335.142 12.0574 335.42 12.3998 335.42V334.18ZM186.62 310C186.62 309.658 186.342 309.38 186 309.38C185.658 309.38 185.38 309.658 185.38 310H186.62ZM185.38 359.6C185.38 359.942 185.658 360.22 186 360.22C186.342 360.22 186.62 359.942 186.62 359.6H185.38ZM210.8 335.42C211.142 335.42 211.42 335.142 211.42 334.8C211.42 334.458 211.142 334.18 210.8 334.18V335.42ZM161.2 334.18C160.858 334.18 160.58 334.458 160.58 334.8C160.58 335.142 160.858 335.42 161.2 335.42V334.18ZM112.22 310C112.22 309.658 111.942 309.38 111.6 309.38C111.257 309.38 110.98 309.658 110.98 310H112.22ZM110.98 359.6C110.98 359.942 111.257 360.22 111.6 360.22C111.942 360.22 112.22 359.942 112.22 359.6H110.98ZM136.4 335.42C136.742 335.42 137.02 335.142 137.02 334.8C137.02 334.458 136.742 334.18 136.4 334.18V335.42ZM86.7998 334.18C86.4574 334.18 86.1798 334.458 86.1798 334.8C86.1798 335.142 86.4574 335.42 86.7998 335.42V334.18ZM261.02 310C261.02 309.658 260.742 309.38 260.4 309.38C260.058 309.38 259.78 309.658 259.78 310H261.02ZM259.78 359.6C259.78 359.942 260.058 360.22 260.4 360.22C260.742 360.22 261.02 359.942 261.02 359.6H259.78ZM285.2 335.42C285.542 335.42 285.82 335.142 285.82 334.8C285.82 334.458 285.542 334.18 285.2 334.18V335.42ZM235.6 334.18C235.258 334.18 234.98 334.458 234.98 334.8C234.98 335.142 235.258 335.42 235.6 335.42V334.18ZM335.42 310C335.42 309.658 335.142 309.38 334.8 309.38C334.458 309.38 334.18 309.658 334.18 310H335.42ZM334.18 359.6C334.18 359.942 334.458 360.22 334.8 360.22C335.142 360.22 335.42 359.942 335.42 359.6H334.18ZM359.6 335.42C359.942 335.42 360.22 335.142 360.22 334.8C360.22 334.458 359.942 334.18 359.6 334.18V335.42ZM310 334.18C309.658 334.18 309.38 334.458 309.38 334.8C309.38 335.142 309.658 335.42 310 335.42V334.18ZM37.8199 161.2C37.8199 160.858 37.5423 160.58 37.1999 160.58C36.8574 160.58 36.5799 160.858 36.5799 161.2H37.8199ZM36.5799 210.8C36.5799 211.142 36.8574 211.42 37.1999 211.42C37.5423 211.42 37.8199 211.142 37.8199 210.8H36.5799ZM61.9998 186.62C62.3421 186.62 62.6198 186.342 62.6198 186C62.6198 185.658 62.3421 185.38 61.9998 185.38V186.62ZM12.3998 185.38C12.0574 185.38 11.7798 185.658 11.7798 186C11.7798 186.342 12.0574 186.62 12.3998 186.62V185.38ZM186.62 161.2C186.62 160.858 186.342 160.58 186 160.58C185.658 160.58 185.38 160.858 185.38 161.2H186.62ZM185.38 210.8C185.38 211.142 185.658 211.42 186 211.42C186.342 211.42 186.62 211.142 186.62 210.8H185.38ZM210.8 186.62C211.142 186.62 211.42 186.342 211.42 186C211.42 185.658 211.142 185.38 210.8 185.38V186.62ZM161.2 185.38C160.858 185.38 160.58 185.658 160.58 186C160.58 186.342 160.858 186.62 161.2 186.62V185.38ZM112.22 161.2C112.22 160.858 111.942 160.58 111.6 160.58C111.257 160.58 110.98 160.858 110.98 161.2H112.22ZM110.98 210.8C110.98 211.142 111.257 211.42 111.6 211.42C111.942 211.42 112.22 211.142 112.22 210.8H110.98ZM136.4 186.62C136.742 186.62 137.02 186.342 137.02 186C137.02 185.658 136.742 185.38 136.4 185.38V186.62ZM86.7998 185.38C86.4574 185.38 86.1798 185.658 86.1798 186C86.1798 186.342 86.4574 186.62 86.7998 186.62V185.38ZM261.02 161.2C261.02 160.858 260.742 160.58 260.4 160.58C260.058 160.58 259.78 160.858 259.78 161.2H261.02ZM259.78 210.8C259.78 211.142 260.058 211.42 260.4 211.42C260.742 211.42 261.02 211.142 261.02 210.8H259.78ZM285.2 186.62C285.542 186.62 285.82 186.342 285.82 186C285.82 185.658 285.542 185.38 285.2 185.38V186.62ZM235.6 185.38C235.258 185.38 234.98 185.658 234.98 186C234.98 186.342 235.258 186.62 235.6 186.62V185.38ZM335.42 161.2C335.42 160.858 335.142 160.58 334.8 160.58C334.458 160.58 334.18 160.858 334.18 161.2H335.42ZM334.18 210.8C334.18 211.142 334.458 211.42 334.8 211.42C335.142 211.42 335.42 211.142 335.42 210.8H334.18ZM359.6 186.62C359.942 186.62 360.22 186.342 360.22 186C360.22 185.658 359.942 185.38 359.6 185.38V186.62ZM310 185.38C309.658 185.38 309.38 185.658 309.38 186C309.38 186.342 309.658 186.62 310 186.62V185.38ZM37.8199 235.6C37.8199 235.258 37.5423 234.98 37.1999 234.98C36.8574 234.98 36.5799 235.258 36.5799 235.6H37.8199ZM36.5799 285.2C36.5799 285.542 36.8574 285.82 37.1999 285.82C37.5423 285.82 37.8199 285.542 37.8199 285.2H36.5799ZM61.9998 261.02C62.3421 261.02 62.6198 260.742 62.6198 260.4C62.6198 260.058 62.3421 259.78 61.9998 259.78V261.02ZM12.3998 259.78C12.0574 259.78 11.7798 260.058 11.7798 260.4C11.7798 260.742 12.0574 261.02 12.3998 261.02V259.78ZM186.62 235.6C186.62 235.258 186.342 234.98 186 234.98C185.658 234.98 185.38 235.258 185.38 235.6H186.62ZM185.38 285.2C185.38 285.542 185.658 285.82 186 285.82C186.342 285.82 186.62 285.542 186.62 285.2H185.38ZM210.8 261.02C211.142 261.02 211.42 260.742 211.42 260.4C211.42 260.058 211.142 259.78 210.8 259.78V261.02ZM161.2 259.78C160.858 259.78 160.58 260.058 160.58 260.4C160.58 260.742 160.858 261.02 161.2 261.02V259.78ZM112.22 235.6C112.22 235.258 111.942 234.98 111.6 234.98C111.257 234.98 110.98 235.258 110.98 235.6H112.22ZM110.98 285.2C110.98 285.542 111.257 285.82 111.6 285.82C111.942 285.82 112.22 285.542 112.22 285.2H110.98ZM136.4 261.02C136.742 261.02 137.02 260.742 137.02 260.4C137.02 260.058 136.742 259.78 136.4 259.78V261.02ZM86.7998 259.78C86.4574 259.78 86.1798 260.058 86.1798 260.4C86.1798 260.742 86.4574 261.02 86.7998 261.02V259.78ZM261.02 235.6C261.02 235.258 260.742 234.98 260.4 234.98C260.058 234.98 259.78 235.258 259.78 235.6H261.02ZM259.78 285.2C259.78 285.542 260.058 285.82 260.4 285.82C260.742 285.82 261.02 285.542 261.02 285.2H259.78ZM285.2 261.02C285.542 261.02 285.82 260.742 285.82 260.4C285.82 260.058 285.542 259.78 285.2 259.78V261.02ZM235.6 259.78C235.258 259.78 234.98 260.058 234.98 260.4C234.98 260.742 235.258 261.02 235.6 261.02V259.78ZM335.42 235.6C335.42 235.258 335.142 234.98 334.8 234.98C334.458 234.98 334.18 235.258 334.18 235.6H335.42ZM334.18 285.2C334.18 285.542 334.458 285.82 334.8 285.82C335.142 285.82 335.42 285.542 335.42 285.2H334.18ZM359.6 261.02C359.942 261.02 360.22 260.742 360.22 260.4C360.22 260.058 359.942 259.78 359.6 259.78V261.02ZM310 259.78C309.658 259.78 309.38 260.058 309.38 260.4C309.38 260.742 309.658 261.02 310 261.02V259.78ZM37.8199 86.8C37.8199 86.4577 37.5423 86.18 37.1999 86.18C36.8574 86.18 36.5799 86.4577 36.5799 86.8H37.8199ZM36.5799 136.4C36.5799 136.742 36.8574 137.02 37.1999 137.02C37.5423 137.02 37.8199 136.742 37.8199 136.4H36.5799ZM61.9998 112.22C62.3421 112.22 62.6198 111.942 62.6198 111.6C62.6198 111.258 62.3421 110.98 61.9998 110.98V112.22ZM12.3998 110.98C12.0574 110.98 11.7798 111.258 11.7798 111.6C11.7798 111.942 12.0574 112.22 12.3998 112.22V110.98ZM186.62 86.8C186.62 86.4577 186.342 86.18 186 86.18C185.658 86.18 185.38 86.4577 185.38 86.8H186.62ZM185.38 136.4C185.38 136.742 185.658 137.02 186 137.02C186.342 137.02 186.62 136.742 186.62 136.4H185.38ZM210.8 112.22C211.142 112.22 211.42 111.942 211.42 111.6C211.42 111.258 211.142 110.98 210.8 110.98V112.22ZM161.2 110.98C160.858 110.98 160.58 111.258 160.58 111.6C160.58 111.942 160.858 112.22 161.2 112.22V110.98ZM37.8199 12.4C37.8199 12.0576 37.5423 11.78 37.1999 11.78C36.8574 11.78 36.5799 12.0576 36.5799 12.4H37.8199ZM36.5799 62C36.5799 62.3424 36.8574 62.62 37.1999 62.62C37.5423 62.62 37.8199 62.3424 37.8199 62H36.5799ZM61.9998 37.8199C62.3421 37.8199 62.6198 37.5424 62.6198 37.1999C62.6198 36.8575 62.3421 36.5799 61.9998 36.5799V37.8199ZM12.3998 36.5799C12.0574 36.5799 11.7798 36.8575 11.7798 37.1999C11.7798 37.5424 12.0574 37.8199 12.3998 37.8199V36.5799ZM186.62 12.4C186.62 12.0576 186.342 11.78 186 11.78C185.658 11.78 185.38 12.0576 185.38 12.4H186.62ZM185.38 62C185.38 62.3424 185.658 62.62 186 62.62C186.342 62.62 186.62 62.3424 186.62 62H185.38ZM210.8 37.8199C211.142 37.8199 211.42 37.5424 211.42 37.1999C211.42 36.8575 211.142 36.5799 210.8 36.5799V37.8199ZM161.2 36.5799C160.858 36.5799 160.58 36.8575 160.58 37.1999C160.58 37.5424 160.858 37.8199 161.2 37.8199V36.5799ZM112.22 86.8C112.22 86.4577 111.942 86.18 111.6 86.18C111.257 86.18 110.98 86.4577 110.98 86.8H112.22ZM110.98 136.4C110.98 136.742 111.257 137.02 111.6 137.02C111.942 137.02 112.22 136.742 112.22 136.4H110.98ZM136.4 112.22C136.742 112.22 137.02 111.942 137.02 111.6C137.02 111.258 136.742 110.98 136.4 110.98V112.22ZM86.7998 110.98C86.4574 110.98 86.1798 111.258 86.1798 111.6C86.1798 111.942 86.4574 112.22 86.7998 112.22V110.98ZM261.02 86.8C261.02 86.4577 260.742 86.18 260.4 86.18C260.058 86.18 259.78 86.4577 259.78 86.8H261.02ZM259.78 136.4C259.78 136.742 260.058 137.02 260.4 137.02C260.742 137.02 261.02 136.742 261.02 136.4H259.78ZM285.2 112.22C285.542 112.22 285.82 111.942 285.82 111.6C285.82 111.258 285.542 110.98 285.2 110.98V112.22ZM235.6 110.98C235.258 110.98 234.98 111.258 234.98 111.6C234.98 111.942 235.258 112.22 235.6 112.22V110.98ZM335.42 86.8C335.42 86.4577 335.142 86.18 334.8 86.18C334.458 86.18 334.18 86.4577 334.18 86.8H335.42ZM334.18 136.4C334.18 136.742 334.458 137.02 334.8 137.02C335.142 137.02 335.42 136.742 335.42 136.4H334.18ZM359.6 112.22C359.942 112.22 360.22 111.942 360.22 111.6C360.22 111.258 359.942 110.98 359.6 110.98V112.22ZM310 110.98C309.658 110.98 309.38 111.258 309.38 111.6C309.38 111.942 309.658 112.22 310 112.22V110.98ZM112.22 12.4C112.22 12.0576 111.942 11.78 111.6 11.78C111.257 11.78 110.98 12.0576 110.98 12.4H112.22ZM110.98 62C110.98 62.3424 111.257 62.62 111.6 62.62C111.942 62.62 112.22 62.3424 112.22 62H110.98ZM136.4 37.8199C136.742 37.8199 137.02 37.5424 137.02 37.1999C137.02 36.8575 136.742 36.5799 136.4 36.5799V37.8199ZM86.7998 36.5799C86.4574 36.5799 86.1798 36.8575 86.1798 37.1999C86.1798 37.5424 86.4574 37.8199 86.7998 37.8199V36.5799ZM261.02 12.4C261.02 12.0576 260.742 11.78 260.4 11.78C260.058 11.78 259.78 12.0576 259.78 12.4H261.02ZM259.78 62C259.78 62.3424 260.058 62.62 260.4 62.62C260.742 62.62 261.02 62.3424 261.02 62H259.78ZM285.2 37.8199C285.542 37.8199 285.82 37.5424 285.82 37.1999C285.82 36.8575 285.542 36.5799 285.2 36.5799V37.8199ZM235.6 36.5799C235.258 36.5799 234.98 36.8575 234.98 37.1999C234.98 37.5424 235.258 37.8199 235.6 37.8199V36.5799ZM335.42 12.4C335.42 12.0576 335.142 11.78 334.8 11.78C334.458 11.78 334.18 12.0576 334.18 12.4H335.42ZM334.18 62C334.18 62.3424 334.458 62.62 334.8 62.62C335.142 62.62 335.42 62.3424 335.42 62H334.18ZM359.6 37.8199C359.942 37.8199 360.22 37.5424 360.22 37.1999C360.22 36.8575 359.942 36.5799 359.6 36.5799V37.8199ZM310 36.5799C309.658 36.5799 309.38 36.8575 309.38 37.1999C309.38 37.5424 309.658 37.8199 310 37.8199V36.5799ZM36.5799 310V334.8H37.8199V310H36.5799ZM36.5799 334.8V359.6H37.8199V334.8H36.5799ZM61.9998 334.18H37.1999V335.42H61.9998V334.18ZM37.1999 334.18H12.3998V335.42H37.1999V334.18ZM185.38 310V334.8H186.62V310H185.38ZM185.38 334.8V359.6H186.62V334.8H185.38ZM210.8 334.18H186V335.42H210.8V334.18ZM186 334.18H161.2V335.42H186V334.18ZM110.98 310V334.8H112.22V310H110.98ZM110.98 334.8V359.6H112.22V334.8H110.98ZM136.4 334.18H111.6V335.42H136.4V334.18ZM111.6 334.18H86.7998V335.42H111.6V334.18ZM259.78 310V334.8H261.02V310H259.78ZM259.78 334.8V359.6H261.02V334.8H259.78ZM285.2 334.18H260.4V335.42H285.2V334.18ZM260.4 334.18H235.6V335.42H260.4V334.18ZM334.18 310V334.8H335.42V310H334.18ZM334.18 334.8V359.6H335.42V334.8H334.18ZM359.6 334.18H334.8V335.42H359.6V334.18ZM334.8 334.18H310V335.42H334.8V334.18ZM36.5799 161.2V186H37.8199V161.2H36.5799ZM36.5799 186V210.8H37.8199V186H36.5799ZM61.9998 185.38H37.1999V186.62H61.9998V185.38ZM37.1999 185.38H12.3998V186.62H37.1999V185.38ZM185.38 161.2V186H186.62V161.2H185.38ZM185.38 186V210.8H186.62V186H185.38ZM210.8 185.38H186V186.62H210.8V185.38ZM186 185.38H161.2V186.62H186V185.38ZM110.98 161.2V186H112.22V161.2H110.98ZM110.98 186V210.8H112.22V186H110.98ZM136.4 185.38H111.6V186.62H136.4V185.38ZM111.6 185.38H86.7998V186.62H111.6V185.38ZM259.78 161.2V186H261.02V161.2H259.78ZM259.78 186V210.8H261.02V186H259.78ZM285.2 185.38H260.4V186.62H285.2V185.38ZM260.4 185.38H235.6V186.62H260.4V185.38ZM334.18 161.2V186H335.42V161.2H334.18ZM334.18 186V210.8H335.42V186H334.18ZM359.6 185.38H334.8V186.62H359.6V185.38ZM334.8 185.38H310V186.62H334.8V185.38ZM36.5799 235.6V260.4H37.8199V235.6H36.5799ZM36.5799 260.4V285.2H37.8199V260.4H36.5799ZM61.9998 259.78H37.1999V261.02H61.9998V259.78ZM37.1999 259.78H12.3998V261.02H37.1999V259.78ZM185.38 235.6V260.4H186.62V235.6H185.38ZM185.38 260.4V285.2H186.62V260.4H185.38ZM210.8 259.78H186V261.02H210.8V259.78ZM186 259.78H161.2V261.02H186V259.78ZM110.98 235.6V260.4H112.22V235.6H110.98ZM110.98 260.4V285.2H112.22V260.4H110.98ZM136.4 259.78H111.6V261.02H136.4V259.78ZM111.6 259.78H86.7998V261.02H111.6V259.78ZM259.78 235.6V260.4H261.02V235.6H259.78ZM259.78 260.4V285.2H261.02V260.4H259.78ZM285.2 259.78H260.4V261.02H285.2V259.78ZM260.4 259.78H235.6V261.02H260.4V259.78ZM334.18 235.6V260.4H335.42V235.6H334.18ZM334.18 260.4V285.2H335.42V260.4H334.18ZM359.6 259.78H334.8V261.02H359.6V259.78ZM334.8 259.78H310V261.02H334.8V259.78ZM36.5799 86.8V111.6H37.8199V86.8H36.5799ZM36.5799 111.6V136.4H37.8199V111.6H36.5799ZM61.9998 110.98H37.1999V112.22H61.9998V110.98ZM37.1999 110.98H12.3998V112.22H37.1999V110.98ZM185.38 86.8V111.6H186.62V86.8H185.38ZM185.38 111.6V136.4H186.62V111.6H185.38ZM210.8 110.98H186V112.22H210.8V110.98ZM186 110.98H161.2V112.22H186V110.98ZM36.5799 12.4V37.1999H37.8199V12.4H36.5799ZM36.5799 37.1999V62H37.8199V37.1999H36.5799ZM61.9998 36.5799H37.1999V37.8199H61.9998V36.5799ZM37.1999 36.5799H12.3998V37.8199H37.1999V36.5799ZM185.38 12.4V37.1999H186.62V12.4H185.38ZM185.38 37.1999V62H186.62V37.1999H185.38ZM210.8 36.5799H186V37.8199H210.8V36.5799ZM186 36.5799H161.2V37.8199H186V36.5799ZM110.98 86.8V111.6H112.22V86.8H110.98ZM110.98 111.6V136.4H112.22V111.6H110.98ZM136.4 110.98H111.6V112.22H136.4V110.98ZM111.6 110.98H86.7998V112.22H111.6V110.98ZM259.78 86.8V111.6H261.02V86.8H259.78ZM259.78 111.6V136.4H261.02V111.6H259.78ZM285.2 110.98H260.4V112.22H285.2V110.98ZM260.4 110.98H235.6V112.22H260.4V110.98ZM334.18 86.8V111.6H335.42V86.8H334.18ZM334.18 111.6V136.4H335.42V111.6H334.18ZM359.6 110.98H334.8V112.22H359.6V110.98ZM334.8 110.98H310V112.22H334.8V110.98ZM110.98 12.4V37.1999H112.22V12.4H110.98ZM110.98 37.1999V62H112.22V37.1999H110.98ZM136.4 36.5799H111.6V37.8199H136.4V36.5799ZM111.6 36.5799H86.7998V37.8199H111.6V36.5799ZM259.78 12.4V37.1999H261.02V12.4H259.78ZM259.78 37.1999V62H261.02V37.1999H259.78ZM285.2 36.5799H260.4V37.8199H285.2V36.5799ZM260.4 36.5799H235.6V37.8199H260.4V36.5799ZM334.18 12.4V37.1999H335.42V12.4H334.18ZM334.18 37.1999V62H335.42V37.1999H334.18ZM359.6 36.5799H334.8V37.8199H359.6V36.5799ZM334.8 36.5799H310V37.8199H334.8V36.5799Z" fill="#CCCCCC" stroke="#E0E0E0" stroke-width="3"/>
</svg>
