<svg width="32" height="32" viewBox="0 0 32 32" fill="none" xmlns="http://www.w3.org/2000/svg">
<g clip-path="url(#clip0_431_622)">
<path d="M27.265 27.266H22.5236V19.8406C22.5236 18.07 22.492 15.7906 20.0576 15.7906C17.5881 15.7906 17.2103 17.7198 17.2103 19.7117V27.2655H12.469V11.996H17.0206V14.0827H17.0844C17.5399 13.3038 18.1981 12.6631 18.989 12.2287C19.7799 11.7944 20.6737 11.5826 21.5754 11.6161C26.381 11.6161 27.267 14.7771 27.267 18.8893L27.265 27.266ZM7.11901 9.90883C5.59939 9.90908 4.36726 8.67733 4.36701 7.15771C4.36676 5.63808 5.59839 4.40595 7.11801 4.4057C8.63764 4.40533 9.86976 5.63708 9.87001 7.1567C9.87014 7.88646 9.58039 8.58638 9.06448 9.1025C8.54857 9.61862 7.84877 9.90866 7.11901 9.90883ZM9.48976 27.2661H4.74339V11.996H9.48964V27.266L9.48976 27.2661ZM29.6288 0.00232899H2.36089C1.07214 -0.012171 0.0152617 1.0202 -0.000488281 2.30895V29.6906C0.0147617 30.98 1.07151 32.0133 2.36076 31.9998H29.6288C30.9208 32.0158 31.9816 30.9825 31.9995 29.6906V2.30683C31.9811 1.01558 30.9201 -0.016671 29.6288 0.000203987" fill="white"/>
</g>
<defs>
<clipPath id="clip0_431_622">
<rect width="32" height="32" fill="white"/>
</clipPath>
</defs>
</svg>
