<svg width="24" height="24" viewBox="0 0 22 22" fill="none" xmlns="http://www.w3.org/2000/svg">
<path d="M16.5 0C14.55 0 12.45 0.519833 11 1.94937C9.55 0.519833 7.45 0 5.5 0C4.05 0 2.51 0.285908 1.22 1.02667C0.49 1.45553 0 2.37824 0 3.4309V18.0902C0 19.7796 1.22 21.0272 2.48 20.6114C3.46 20.2865 4.5 20.1435 5.5 20.1435C7.06 20.1435 8.72 20.4814 10.06 21.3391C10.66 21.729 11.34 21.729 11.93 21.3391C13.27 20.4684 14.93 20.1435 16.49 20.1435C17.49 20.1435 18.53 20.2865 19.51 20.6114C20.77 21.0402 21.99 19.7926 21.99 18.0902V3.4309C21.99 2.37824 21.5 1.45553 20.77 1.02667C19.49 0.285908 17.95 0 16.5 0ZM20 16.5437C20 17.3624 19.42 17.9602 18.8 17.8173C18.05 17.6353 17.27 17.5574 16.5 17.5574C14.8 17.5574 12.35 18.4021 11 19.5067V4.54854C12.35 3.44389 14.8 2.59916 16.5 2.59916C17.42 2.59916 18.33 2.71613 19.2 2.96305C19.66 3.09301 20 3.62584 20 4.23664V16.5437Z" fill="url(#paint0_linear_447_102)"/>
<path d="M12.9799 8.46024C12.6599 8.46024 12.3699 8.20033 12.2699 7.78446C12.1399 7.27762 12.3599 6.7188 12.7499 6.56285C14.2899 5.91306 16.2799 5.70513 18.1099 5.97804C18.5199 6.04302 18.8199 6.52387 18.7699 7.05669C18.7199 7.58952 18.3499 7.9794 17.9399 7.91442C16.3199 7.6675 14.5499 7.86243 13.2099 8.42125C13.1299 8.43425 13.0499 8.46024 12.9799 8.46024Z" fill="url(#paint1_linear_447_102)"/>
<path d="M12.9799 11.9172C12.6599 11.9172 12.3699 11.6572 12.2699 11.2414C12.1399 10.7345 12.3599 10.1757 12.7499 10.0198C14.2799 9.36997 16.2799 9.16204 18.1099 9.43495C18.5199 9.49993 18.8199 9.98077 18.7699 10.5136C18.7199 11.0464 18.3499 11.4363 17.9399 11.3713C16.3199 11.1244 14.5499 11.3193 13.2099 11.8782C13.1299 11.9042 13.0499 11.9172 12.9799 11.9172Z" fill="url(#paint2_linear_447_102)"/>
<path d="M12.9799 15.3741C12.6599 15.3741 12.3699 15.1141 12.2699 14.6983C12.1399 14.1914 12.3599 13.6326 12.7499 13.4767C14.2799 12.8269 16.2799 12.6189 18.1099 12.8919C18.5199 12.9568 18.8199 13.4377 18.7699 13.9705C18.7199 14.5033 18.3499 14.8802 17.9399 14.8282C16.3199 14.5813 14.5499 14.7763 13.2099 15.3351C13.1299 15.3611 13.0499 15.3741 12.9799 15.3741Z" fill="url(#paint3_linear_447_102)"/>
<defs>
<linearGradient id="paint0_linear_447_102" x1="10.995" y1="0" x2="10.995" y2="21.6316" gradientUnits="userSpaceOnUse">
<stop stop-color="#B6F829"/>
<stop offset="1" stop-color="#67DD0A"/>
</linearGradient>
<linearGradient id="paint1_linear_447_102" x1="15.5039" y1="5.86096" x2="15.5039" y2="8.46024" gradientUnits="userSpaceOnUse">
<stop stop-color="#B6F829"/>
<stop offset="1" stop-color="#67DD0A"/>
</linearGradient>
<linearGradient id="paint2_linear_447_102" x1="15.5039" y1="9.31787" x2="15.5039" y2="11.9172" gradientUnits="userSpaceOnUse">
<stop stop-color="#B6F829"/>
<stop offset="1" stop-color="#67DD0A"/>
</linearGradient>
<linearGradient id="paint3_linear_447_102" x1="15.5039" y1="12.7748" x2="15.5039" y2="15.3741" gradientUnits="userSpaceOnUse">
<stop stop-color="#B6F829"/>
<stop offset="1" stop-color="#67DD0A"/>
</linearGradient>
</defs>
</svg>
