<svg width="30" height="40" viewBox="0 0 30 40" fill="none" xmlns="http://www.w3.org/2000/svg">
<path d="M7.5875 28.3305C6.90861 27.6516 7.26251 27.843 5.62504 27.4048C4.88209 27.2056 4.22898 26.8228 3.63836 26.3642L0.0939025 35.0546C-0.249059 35.896 0.391553 36.8101 1.29935 36.7757L5.41567 36.6186L8.24687 39.6092C8.87185 40.2686 9.96871 40.0631 10.3117 39.2217L14.378 29.2516C13.5311 29.7235 12.5913 30 11.6195 30C10.096 30 8.66483 29.4071 7.5875 28.3305V28.3305ZM29.9058 35.0546L26.3614 26.3642C25.7707 26.8235 25.1176 27.2056 24.3747 27.4048C22.7286 27.8454 23.0895 27.6532 22.4122 28.3305C21.3349 29.4071 19.9029 30 18.3795 30C17.4076 30 16.4678 29.7227 15.6209 29.2516L19.6873 39.2217C20.0302 40.0631 21.1279 40.2686 21.7521 39.6092L24.584 36.6186L28.7004 36.7757C29.6082 36.8101 30.2488 35.8952 29.9058 35.0546V35.0546ZM20.5466 26.5626C21.7403 25.3478 21.8771 25.4525 23.577 24.9892C24.6622 24.6931 25.5106 23.8298 25.8012 22.7252C26.3856 20.5065 26.234 20.7744 27.8285 19.151C28.623 18.3425 28.9332 17.1636 28.6426 16.0589C28.059 13.8418 28.0582 14.1511 28.6426 11.9316C28.9332 10.827 28.623 9.64809 27.8285 8.83952C26.234 7.21611 26.3856 7.48329 25.8012 5.26537C25.5106 4.1607 24.6622 3.29744 23.577 3.00135C21.3989 2.40683 21.6614 2.5623 20.0654 0.938111C19.2709 0.129534 18.1123 -0.186866 17.0272 0.109221C14.8499 0.70296 15.1538 0.703741 12.9726 0.109221C11.8874 -0.186866 10.7288 0.128752 9.93433 0.938111C8.33983 2.56152 8.60233 2.40683 6.42346 3.00135C5.33833 3.29744 4.48991 4.1607 4.19929 5.26537C3.61571 7.48329 3.76649 7.21611 2.17199 8.83952C1.37747 9.64809 1.06654 10.827 1.35794 11.9316C1.94152 14.1472 1.9423 13.8379 1.35794 16.0581C1.06732 17.1628 1.37747 18.3417 2.17199 19.151C3.76649 20.7744 3.61493 20.5065 4.19929 22.7252C4.48991 23.8298 5.33833 24.6931 6.42346 24.9892C8.17187 25.4657 8.30233 25.3907 9.45309 26.5626C10.4867 27.6149 12.0968 27.8032 13.339 27.0173C13.8357 26.7019 14.4119 26.5345 15.0002 26.5345C15.5886 26.5345 16.1648 26.7019 16.6615 27.0173C17.9029 27.8032 19.513 27.6149 20.5466 26.5626ZM7.62969 13.7472C7.62969 9.60434 10.9296 6.24582 14.9999 6.24582C19.0701 6.24582 22.37 9.60434 22.37 13.7472C22.37 17.8901 19.0701 21.2486 14.9999 21.2486C10.9296 21.2486 7.62969 17.8901 7.62969 13.7472V13.7472Z" fill="url(#paint0_linear_447_100)"/>
<defs>
<linearGradient id="paint0_linear_447_100" x1="14.9999" y1="0" x2="14.9999" y2="40" gradientUnits="userSpaceOnUse">
<stop stop-color="#B6F829"/>
<stop offset="1" stop-color="#67DD0A"/>
</linearGradient>
</defs>
</svg>
