<svg width="16" height="16" viewBox="0 0 16 16" fill="none" xmlns="http://www.w3.org/2000/svg">
<g clip-path="url(#clip0_479_4)">
<path d="M4.67425 1.36C5.08608 1.76223 5.33096 2.30506 5.35997 2.88L7.45139 0.799996C7.52322 0.719466 7.61126 0.655028 7.70974 0.610906C7.80822 0.566784 7.91491 0.543976 8.02282 0.543976C8.13073 0.543976 8.23743 0.566784 8.3359 0.610906C8.43438 0.655028 8.52242 0.719466 8.59425 0.799996L10.2857 2.56C10.0454 2.67649 9.8255 2.83084 9.63425 3.01714C9.22719 3.4648 9.0081 4.05199 9.02246 4.65688C9.03681 5.26177 9.28351 5.83791 9.71135 6.26575C10.1392 6.6936 10.7153 6.94029 11.3202 6.95465C11.9251 6.969 12.5123 6.74992 12.96 6.34285C13.1463 6.15161 13.3006 5.93166 13.4171 5.69143L15.2 7.45143C15.2805 7.52326 15.3449 7.6113 15.3891 7.70977C15.4332 7.80825 15.456 7.91494 15.456 8.02285C15.456 8.13076 15.4332 8.23746 15.3891 8.33593C15.3449 8.43441 15.2805 8.52245 15.2 8.59428L13.12 10.64C13.5705 10.6672 14.0035 10.824 14.367 11.0915C14.7306 11.359 15.0091 11.7258 15.1692 12.1478C15.3292 12.5698 15.364 13.029 15.2692 13.4703C15.1745 13.9116 14.9543 14.3161 14.6352 14.6352C14.3161 14.9544 13.9115 15.1745 13.4703 15.2693C13.029 15.364 12.5697 15.3292 12.1477 15.1692C11.7257 15.0091 11.359 14.7306 11.0915 14.3671C10.824 14.0036 10.6672 13.5705 10.64 13.12L8.54854 15.2C8.47671 15.2805 8.38867 15.345 8.29019 15.3891C8.19171 15.4332 8.08502 15.456 7.97711 15.456C7.8692 15.456 7.76251 15.4332 7.66403 15.3891C7.56555 15.345 7.47751 15.2805 7.40568 15.2L5.71425 13.44C5.95449 13.3235 6.17443 13.1692 6.36568 12.9829C6.8067 12.5388 7.05325 11.9378 7.05111 11.3119C7.04897 10.6861 6.7983 10.0867 6.35425 9.64571C5.9102 9.20469 5.30915 8.95814 4.68331 8.96028C4.05748 8.96242 3.45813 9.21309 3.01711 9.65714C2.83081 9.84839 2.67646 10.0683 2.55997 10.3086L0.799966 8.54857C0.719436 8.47674 0.654997 8.3887 0.610876 8.29022C0.566754 8.19174 0.543945 8.08505 0.543945 7.97714C0.543945 7.86923 0.566754 7.76254 0.610876 7.66406C0.654997 7.56558 0.719436 7.47754 0.799966 7.40571L2.87997 5.36C2.30503 5.33099 1.7622 5.08611 1.35997 4.67428C0.920464 4.23478 0.673555 3.63869 0.673555 3.01714C0.673555 2.39559 0.920464 1.7995 1.35997 1.36C1.79947 0.920495 2.39556 0.673585 3.01711 0.673585C3.63866 0.673585 4.23475 0.920495 4.67425 1.36V1.36Z" stroke="black" stroke-width="1.14286" stroke-linecap="round" stroke-linejoin="round"/>
</g>
<defs>
<clipPath id="clip0_479_4">
<rect width="16" height="16" fill="white"/>
</clipPath>
</defs>
</svg>
