<svg width="120" height="117" viewBox="0 0 120 117" fill="none" xmlns="http://www.w3.org/2000/svg">
<path d="M110.769 84.8824C110.769 87.4164 112.836 89.4706 115.385 89.4706C117.934 89.4706 120 87.4164 120 84.8824C120 82.3483 117.934 80.2941 115.385 80.2941C112.836 80.2941 110.769 82.3483 110.769 84.8824Z" fill="#70DA1C"/>
<path d="M110.769 112.412C110.769 114.946 112.836 117 115.385 117C117.934 117 120 114.946 120 112.412C120 109.878 117.934 107.824 115.385 107.824C112.836 107.824 110.769 109.878 110.769 112.412Z" fill="#70DA1C"/>
<path d="M83.0769 32.1176C83.0769 34.6517 85.1433 36.7059 87.6923 36.7059C90.2413 36.7059 92.3077 34.6517 92.3077 32.1176C92.3077 29.5836 90.2413 27.5294 87.6923 27.5294C85.1433 27.5294 83.0769 29.5836 83.0769 32.1176Z" fill="#70DA1C"/>
<path d="M83.0769 59.6471C83.0769 62.1811 85.1433 64.2353 87.6923 64.2353C90.2413 64.2353 92.3077 62.1811 92.3077 59.6471C92.3077 57.113 90.2413 55.0588 87.6923 55.0588C85.1433 55.0588 83.0769 57.113 83.0769 59.6471Z" fill="#70DA1C"/>
<path d="M83.0769 84.8824C83.0769 87.4164 85.1433 89.4706 87.6923 89.4706C90.2413 89.4706 92.3077 87.4164 92.3077 84.8824C92.3077 82.3483 90.2413 80.2941 87.6923 80.2941C85.1433 80.2941 83.0769 82.3483 83.0769 84.8824Z" fill="#70DA1C"/>
<path d="M83.0769 112.412C83.0769 114.946 85.1433 117 87.6923 117C90.2413 117 92.3077 114.946 92.3077 112.412C92.3077 109.878 90.2413 107.824 87.6923 107.824C85.1433 107.824 83.0769 109.878 83.0769 112.412Z" fill="#70DA1C"/>
<path d="M55.3846 32.1176C55.3846 34.6517 57.451 36.7059 60 36.7059C62.549 36.7059 64.6154 34.6517 64.6154 32.1176C64.6154 29.5836 62.549 27.5294 60 27.5294C57.451 27.5294 55.3846 29.5836 55.3846 32.1176Z" fill="#70DA1C"/>
<path d="M55.3846 59.6471C55.3846 62.1811 57.451 64.2353 60 64.2353C62.549 64.2353 64.6154 62.1811 64.6154 59.6471C64.6154 57.113 62.549 55.0588 60 55.0588C57.451 55.0588 55.3846 57.113 55.3846 59.6471Z" fill="#70DA1C"/>
<path d="M55.3846 84.8824C55.3846 87.4164 57.451 89.4706 60 89.4706C62.549 89.4706 64.6154 87.4164 64.6154 84.8824C64.6154 82.3483 62.549 80.2941 60 80.2941C57.451 80.2941 55.3846 82.3483 55.3846 84.8824Z" fill="#70DA1C"/>
<path d="M55.3846 112.412C55.3846 114.946 57.451 117 60 117C62.549 117 64.6154 114.946 64.6154 112.412C64.6154 109.878 62.549 107.824 60 107.824C57.451 107.824 55.3846 109.878 55.3846 112.412Z" fill="#70DA1C"/>
<path d="M27.6923 4.58824C27.6923 7.12225 29.7587 9.17647 32.3077 9.17647C34.8567 9.17647 36.9231 7.12225 36.9231 4.58824C36.9231 2.05422 34.8567 0 32.3077 0C29.7587 0 27.6923 2.05422 27.6923 4.58824Z" fill="#70DA1C"/>
<path d="M27.6923 32.1176C27.6923 34.6517 29.7587 36.7059 32.3077 36.7059C34.8567 36.7059 36.9231 34.6517 36.9231 32.1176C36.9231 29.5836 34.8567 27.5294 32.3077 27.5294C29.7587 27.5294 27.6923 29.5836 27.6923 32.1176Z" fill="#70DA1C"/>
<path d="M27.6923 59.6471C27.6923 62.1811 29.7587 64.2353 32.3077 64.2353C34.8567 64.2353 36.9231 62.1811 36.9231 59.6471C36.9231 57.113 34.8567 55.0588 32.3077 55.0588C29.7587 55.0588 27.6923 57.113 27.6923 59.6471Z" fill="#70DA1C"/>
<path d="M27.6923 84.8824C27.6923 87.4164 29.7587 89.4706 32.3077 89.4706C34.8567 89.4706 36.9231 87.4164 36.9231 84.8824C36.9231 82.3483 34.8567 80.2941 32.3077 80.2941C29.7587 80.2941 27.6923 82.3483 27.6923 84.8824Z" fill="#70DA1C"/>
<path d="M27.6923 112.412C27.6923 114.946 29.7587 117 32.3077 117C34.8567 117 36.9231 114.946 36.9231 112.412C36.9231 109.878 34.8567 107.824 32.3077 107.824C29.7587 107.824 27.6923 109.878 27.6923 112.412Z" fill="#70DA1C"/>
<path d="M0 4.58824C0 7.12225 2.06638 9.17647 4.61539 9.17647C7.16439 9.17647 9.23077 7.12225 9.23077 4.58824C9.23077 2.05422 7.16439 0 4.61539 0C2.06638 0 0 2.05422 0 4.58824Z" fill="#70DA1C"/>
<path d="M0 32.1176C0 34.6517 2.06638 36.7059 4.61539 36.7059C7.16439 36.7059 9.23077 34.6517 9.23077 32.1176C9.23077 29.5836 7.16439 27.5294 4.61539 27.5294C2.06638 27.5294 0 29.5836 0 32.1176Z" fill="#70DA1C"/>
<path d="M0 59.6471C0 62.1811 2.06638 64.2353 4.61539 64.2353C7.16439 64.2353 9.23077 62.1811 9.23077 59.6471C9.23077 57.113 7.16439 55.0588 4.61539 55.0588C2.06638 55.0588 0 57.113 0 59.6471Z" fill="#70DA1C"/>
<path d="M0 84.8824C0 87.4164 2.06638 89.4706 4.61539 89.4706C7.16439 89.4706 9.23077 87.4164 9.23077 84.8824C9.23077 82.3483 7.16439 80.2941 4.61539 80.2941C2.06638 80.2941 0 82.3483 0 84.8824Z" fill="#70DA1C"/>
<path d="M0 112.412C0 114.946 2.06638 117 4.61539 117C7.16439 117 9.23077 114.946 9.23077 112.412C9.23077 109.878 7.16439 107.824 4.61539 107.824C2.06638 107.824 0 109.878 0 112.412Z" fill="#70DA1C"/>
</svg>
