<svg width="28" height="29" viewBox="0 0 28 29" fill="none" xmlns="http://www.w3.org/2000/svg">
<path d="M0 14.0708C0 21.8047 6.26613 28.0708 14 28.0708C21.7339 28.0708 28 21.8047 28 14.0708C28 6.33693 21.7339 0.0708008 14 0.0708008C6.26613 0.0708008 0 6.33693 0 14.0708ZM13.0403 20.5006L5.39113 12.8514C4.86049 12.3208 4.86049 11.4627 5.39113 10.9377L6.35081 9.97806C6.88145 9.44741 7.73952 9.44741 8.26452 9.97806L14 15.7135L19.7355 9.97806C20.2661 9.44741 21.1242 9.44741 21.6492 9.97806L22.6089 10.9377C23.1395 11.4684 23.1395 12.3264 22.6089 12.8514L14.9597 20.5006C14.429 21.0313 13.571 21.0313 13.0403 20.5006Z" fill="url(#paint0_linear_431_144)"/>
<defs>
<linearGradient id="paint0_linear_431_144" x1="28" y1="14.0708" x2="0" y2="14.0708" gradientUnits="userSpaceOnUse">
<stop stop-color="#B6F829"/>
<stop offset="1" stop-color="#67DD0A"/>
</linearGradient>
</defs>
</svg>
