<svg width="74" height="72" viewBox="0 0 74 72" fill="none" xmlns="http://www.w3.org/2000/svg">
<path d="M5.69231 19.7647C5.69231 18.2053 4.41804 16.9412 2.84615 16.9412C1.27427 16.9412 0 18.2053 0 19.7647C0 21.3241 1.27427 22.5882 2.84615 22.5882C4.41804 22.5882 5.69231 21.3241 5.69231 19.7647Z" fill="#70DA1C"/>
<path d="M5.69231 2.82353C5.69231 1.26414 4.41804 -1.78814e-06 2.84615 -1.78814e-06C1.27427 -1.78814e-06 0 1.26414 0 2.82353C0 4.38292 1.27427 5.64706 2.84615 5.64706C4.41804 5.64706 5.69231 4.38292 5.69231 2.82353Z" fill="#70DA1C"/>
<path d="M22.7692 52.2353C22.7692 50.6759 21.495 49.4118 19.9231 49.4118C18.3512 49.4118 17.0769 50.6759 17.0769 52.2353C17.0769 53.7947 18.3512 55.0588 19.9231 55.0588C21.495 55.0588 22.7692 53.7947 22.7692 52.2353Z" fill="#70DA1C"/>
<path d="M22.7692 35.2941C22.7692 33.7347 21.495 32.4706 19.9231 32.4706C18.3512 32.4706 17.0769 33.7347 17.0769 35.2941C17.0769 36.8535 18.3512 38.1176 19.9231 38.1176C21.495 38.1176 22.7692 36.8535 22.7692 35.2941Z" fill="#70DA1C"/>
<path d="M22.7692 19.7647C22.7692 18.2053 21.495 16.9412 19.9231 16.9412C18.3512 16.9412 17.0769 18.2053 17.0769 19.7647C17.0769 21.3241 18.3512 22.5882 19.9231 22.5882C21.495 22.5882 22.7692 21.3241 22.7692 19.7647Z" fill="#70DA1C"/>
<path d="M22.7692 2.82353C22.7692 1.26414 21.495 -1.78814e-06 19.9231 -1.78814e-06C18.3512 -1.78814e-06 17.0769 1.26414 17.0769 2.82353C17.0769 4.38292 18.3512 5.64706 19.9231 5.64706C21.495 5.64706 22.7692 4.38292 22.7692 2.82353Z" fill="#70DA1C"/>
<path d="M39.8462 52.2353C39.8462 50.6759 38.5719 49.4118 37 49.4118C35.4281 49.4118 34.1538 50.6759 34.1538 52.2353C34.1538 53.7947 35.4281 55.0588 37 55.0588C38.5719 55.0588 39.8462 53.7947 39.8462 52.2353Z" fill="#70DA1C"/>
<path d="M39.8462 35.2941C39.8462 33.7347 38.5719 32.4706 37 32.4706C35.4281 32.4706 34.1538 33.7347 34.1538 35.2941C34.1538 36.8535 35.4281 38.1176 37 38.1176C38.5719 38.1176 39.8462 36.8535 39.8462 35.2941Z" fill="#70DA1C"/>
<path d="M39.8462 19.7647C39.8462 18.2053 38.5719 16.9412 37 16.9412C35.4281 16.9412 34.1538 18.2053 34.1538 19.7647C34.1538 21.3241 35.4281 22.5882 37 22.5882C38.5719 22.5882 39.8462 21.3241 39.8462 19.7647Z" fill="#70DA1C"/>
<path d="M39.8462 2.82353C39.8462 1.26414 38.5719 -1.78814e-06 37 -1.78814e-06C35.4281 -1.78814e-06 34.1538 1.26414 34.1538 2.82353C34.1538 4.38292 35.4281 5.64706 37 5.64706C38.5719 5.64706 39.8462 4.38292 39.8462 2.82353Z" fill="#70DA1C"/>
<path d="M56.9231 69.1765C56.9231 67.6171 55.6488 66.3529 54.0769 66.3529C52.505 66.3529 51.2308 67.6171 51.2308 69.1765C51.2308 70.7359 52.505 72 54.0769 72C55.6488 72 56.9231 70.7359 56.9231 69.1765Z" fill="#70DA1C"/>
<path d="M56.9231 52.2353C56.9231 50.6759 55.6488 49.4118 54.0769 49.4118C52.505 49.4118 51.2308 50.6759 51.2308 52.2353C51.2308 53.7947 52.505 55.0588 54.0769 55.0588C55.6488 55.0588 56.9231 53.7947 56.9231 52.2353Z" fill="#70DA1C"/>
<path d="M56.9231 35.2941C56.9231 33.7347 55.6488 32.4706 54.0769 32.4706C52.505 32.4706 51.2308 33.7347 51.2308 35.2941C51.2308 36.8535 52.505 38.1176 54.0769 38.1176C55.6488 38.1176 56.9231 36.8535 56.9231 35.2941Z" fill="#70DA1C"/>
<path d="M56.9231 19.7647C56.9231 18.2053 55.6488 16.9412 54.0769 16.9412C52.505 16.9412 51.2308 18.2053 51.2308 19.7647C51.2308 21.3241 52.505 22.5882 54.0769 22.5882C55.6488 22.5882 56.9231 21.3241 56.9231 19.7647Z" fill="#70DA1C"/>
<path d="M56.9231 2.82353C56.9231 1.26414 55.6488 -1.78814e-06 54.0769 -1.78814e-06C52.505 -1.78814e-06 51.2308 1.26414 51.2308 2.82353C51.2308 4.38292 52.505 5.64706 54.0769 5.64706C55.6488 5.64706 56.9231 4.38292 56.9231 2.82353Z" fill="#70DA1C"/>
<path d="M74 69.1765C74 67.6171 72.7257 66.3529 71.1538 66.3529C69.582 66.3529 68.3077 67.6171 68.3077 69.1765C68.3077 70.7359 69.582 72 71.1538 72C72.7257 72 74 70.7359 74 69.1765Z" fill="#70DA1C"/>
<path d="M74 52.2353C74 50.6759 72.7257 49.4118 71.1538 49.4118C69.582 49.4118 68.3077 50.6759 68.3077 52.2353C68.3077 53.7947 69.582 55.0588 71.1538 55.0588C72.7257 55.0588 74 53.7947 74 52.2353Z" fill="#70DA1C"/>
<path d="M74 35.2941C74 33.7347 72.7257 32.4706 71.1538 32.4706C69.582 32.4706 68.3077 33.7347 68.3077 35.2941C68.3077 36.8535 69.582 38.1176 71.1538 38.1176C72.7257 38.1176 74 36.8535 74 35.2941Z" fill="#70DA1C"/>
<path d="M74 19.7647C74 18.2053 72.7257 16.9412 71.1538 16.9412C69.582 16.9412 68.3077 18.2053 68.3077 19.7647C68.3077 21.3241 69.582 22.5882 71.1538 22.5882C72.7257 22.5882 74 21.3241 74 19.7647Z" fill="#70DA1C"/>
<path d="M74 2.82353C74 1.26414 72.7257 -1.78814e-06 71.1538 -1.78814e-06C69.582 -1.78814e-06 68.3077 1.26414 68.3077 2.82353C68.3077 4.38292 69.582 5.64706 71.1538 5.64706C72.7257 5.64706 74 4.38292 74 2.82353Z" fill="#70DA1C"/>
</svg>
