<svg width="28" height="28" viewBox="0 0 28 28" fill="none" xmlns="http://www.w3.org/2000/svg">
<path d="M28 14C28 6.26613 21.7339 0 14 0C6.26613 0 0 6.26613 0 14C0 21.7339 6.26613 28 14 28C21.7339 28 28 21.7339 28 14ZM14.9597 7.57016L22.6089 15.2194C23.1395 15.75 23.1395 16.6081 22.6089 17.1331L21.6492 18.0927C21.1185 18.6234 20.2605 18.6234 19.7355 18.0927L14 12.3573L8.26452 18.0927C7.73387 18.6234 6.87581 18.6234 6.35081 18.0927L5.39113 17.1331C4.86048 16.6024 4.86048 15.7444 5.39113 15.2194L13.0403 7.57016C13.571 7.03952 14.429 7.03952 14.9597 7.57016V7.57016Z" fill="url(#paint0_linear_447_97)"/>
<defs>
<linearGradient id="paint0_linear_447_97" x1="0" y1="14" x2="28" y2="14" gradientUnits="userSpaceOnUse">
<stop stop-color="#B6F829"/>
<stop offset="1" stop-color="#67DD0A"/>
</linearGradient>
</defs>
</svg>
