<svg width="74" height="72" viewBox="0 0 74 72" fill="none" xmlns="http://www.w3.org/2000/svg">
<path d="M68.3077 19.7647C68.3077 18.2053 69.582 16.9412 71.1538 16.9412C72.7257 16.9412 74 18.2053 74 19.7647C74 21.3241 72.7257 22.5882 71.1538 22.5882C69.582 22.5882 68.3077 21.3241 68.3077 19.7647Z" fill="black"/>
<path d="M68.3077 2.82353C68.3077 1.26414 69.582 -1.78814e-06 71.1538 -1.78814e-06C72.7257 -1.78814e-06 74 1.26414 74 2.82353C74 4.38292 72.7257 5.64706 71.1538 5.64706C69.582 5.64706 68.3077 4.38292 68.3077 2.82353Z" fill="black"/>
<path d="M51.2308 52.2353C51.2308 50.6759 52.505 49.4118 54.0769 49.4118C55.6488 49.4118 56.9231 50.6759 56.9231 52.2353C56.9231 53.7947 55.6488 55.0588 54.0769 55.0588C52.505 55.0588 51.2308 53.7947 51.2308 52.2353Z" fill="black"/>
<path d="M51.2308 35.2941C51.2308 33.7347 52.505 32.4706 54.0769 32.4706C55.6488 32.4706 56.9231 33.7347 56.9231 35.2941C56.9231 36.8535 55.6488 38.1176 54.0769 38.1176C52.505 38.1176 51.2308 36.8535 51.2308 35.2941Z" fill="black"/>
<path d="M51.2308 19.7647C51.2308 18.2053 52.505 16.9412 54.0769 16.9412C55.6488 16.9412 56.9231 18.2053 56.9231 19.7647C56.9231 21.3241 55.6488 22.5882 54.0769 22.5882C52.505 22.5882 51.2308 21.3241 51.2308 19.7647Z" fill="black"/>
<path d="M51.2308 2.82353C51.2308 1.26414 52.505 -1.78814e-06 54.0769 -1.78814e-06C55.6488 -1.78814e-06 56.9231 1.26414 56.9231 2.82353C56.9231 4.38292 55.6488 5.64706 54.0769 5.64706C52.505 5.64706 51.2308 4.38292 51.2308 2.82353Z" fill="black"/>
<path d="M34.1538 52.2353C34.1538 50.6759 35.4281 49.4118 37 49.4118C38.5719 49.4118 39.8462 50.6759 39.8462 52.2353C39.8462 53.7947 38.5719 55.0588 37 55.0588C35.4281 55.0588 34.1538 53.7947 34.1538 52.2353Z" fill="black"/>
<path d="M34.1538 35.2941C34.1538 33.7347 35.4281 32.4706 37 32.4706C38.5719 32.4706 39.8462 33.7347 39.8462 35.2941C39.8462 36.8535 38.5719 38.1176 37 38.1176C35.4281 38.1176 34.1538 36.8535 34.1538 35.2941Z" fill="black"/>
<path d="M34.1538 19.7647C34.1538 18.2053 35.4281 16.9412 37 16.9412C38.5719 16.9412 39.8462 18.2053 39.8462 19.7647C39.8462 21.3241 38.5719 22.5882 37 22.5882C35.4281 22.5882 34.1538 21.3241 34.1538 19.7647Z" fill="black"/>
<path d="M34.1538 2.82353C34.1538 1.26414 35.4281 -1.78814e-06 37 -1.78814e-06C38.5719 -1.78814e-06 39.8462 1.26414 39.8462 2.82353C39.8462 4.38292 38.5719 5.64706 37 5.64706C35.4281 5.64706 34.1538 4.38292 34.1538 2.82353Z" fill="black"/>
<path d="M17.0769 69.1765C17.0769 67.6171 18.3512 66.3529 19.9231 66.3529C21.495 66.3529 22.7692 67.6171 22.7692 69.1765C22.7692 70.7359 21.495 72 19.9231 72C18.3512 72 17.0769 70.7359 17.0769 69.1765Z" fill="black"/>
<path d="M17.0769 52.2353C17.0769 50.6759 18.3512 49.4118 19.9231 49.4118C21.495 49.4118 22.7692 50.6759 22.7692 52.2353C22.7692 53.7947 21.495 55.0588 19.9231 55.0588C18.3512 55.0588 17.0769 53.7947 17.0769 52.2353Z" fill="black"/>
<path d="M17.0769 35.2941C17.0769 33.7347 18.3512 32.4706 19.9231 32.4706C21.495 32.4706 22.7692 33.7347 22.7692 35.2941C22.7692 36.8535 21.495 38.1176 19.9231 38.1176C18.3512 38.1176 17.0769 36.8535 17.0769 35.2941Z" fill="black"/>
<path d="M17.0769 19.7647C17.0769 18.2053 18.3512 16.9412 19.9231 16.9412C21.495 16.9412 22.7692 18.2053 22.7692 19.7647C22.7692 21.3241 21.495 22.5882 19.9231 22.5882C18.3512 22.5882 17.0769 21.3241 17.0769 19.7647Z" fill="black"/>
<path d="M17.0769 2.82353C17.0769 1.26414 18.3512 -1.78814e-06 19.9231 -1.78814e-06C21.495 -1.78814e-06 22.7692 1.26414 22.7692 2.82353C22.7692 4.38292 21.495 5.64706 19.9231 5.64706C18.3512 5.64706 17.0769 4.38292 17.0769 2.82353Z" fill="black"/>
<path d="M2.86102e-06 69.1765C2.86102e-06 67.6171 1.27427 66.3529 2.84616 66.3529C4.41804 66.3529 5.69231 67.6171 5.69231 69.1765C5.69231 70.7359 4.41804 72 2.84616 72C1.27427 72 2.86102e-06 70.7359 2.86102e-06 69.1765Z" fill="black"/>
<path d="M2.86102e-06 52.2353C2.86102e-06 50.6759 1.27427 49.4118 2.84616 49.4118C4.41804 49.4118 5.69231 50.6759 5.69231 52.2353C5.69231 53.7947 4.41804 55.0588 2.84616 55.0588C1.27427 55.0588 2.86102e-06 53.7947 2.86102e-06 52.2353Z" fill="black"/>
<path d="M2.86102e-06 35.2941C2.86102e-06 33.7347 1.27427 32.4706 2.84616 32.4706C4.41804 32.4706 5.69231 33.7347 5.69231 35.2941C5.69231 36.8535 4.41804 38.1176 2.84616 38.1176C1.27427 38.1176 2.86102e-06 36.8535 2.86102e-06 35.2941Z" fill="black"/>
<path d="M2.86102e-06 19.7647C2.86102e-06 18.2053 1.27427 16.9412 2.84616 16.9412C4.41804 16.9412 5.69231 18.2053 5.69231 19.7647C5.69231 21.3241 4.41804 22.5882 2.84616 22.5882C1.27427 22.5882 2.86102e-06 21.3241 2.86102e-06 19.7647Z" fill="black"/>
<path d="M2.86102e-06 2.82353C2.86102e-06 1.26414 1.27427 -1.78814e-06 2.84616 -1.78814e-06C4.41804 -1.78814e-06 5.69231 1.26414 5.69231 2.82353C5.69231 4.38292 4.41804 5.64706 2.84616 5.64706C1.27427 5.64706 2.86102e-06 4.38292 2.86102e-06 2.82353Z" fill="black"/>
</svg>
