<svg width="32" height="32" viewBox="0 0 32 32" fill="none" xmlns="http://www.w3.org/2000/svg">
<path d="M16.0057 0.00269954C13.147 0.00186386 10.3402 0.766932 7.87732 2.21834C5.41441 3.66975 3.38532 5.75449 2.00104 8.25577C0.616769 10.7571 -0.072134 13.5835 0.00597522 16.4412C0.0840844 19.299 0.926354 22.0836 2.44519 24.5055L2.82585 25.1103L1.20874 31.0119L7.26413 29.4244L7.84726 29.77C10.3123 31.2299 13.1246 32.0002 15.9895 32H15.9976C20.241 32.0007 24.3109 30.3157 27.3119 27.3156C30.3129 24.3155 31.9993 20.2462 32 16.0027C32.0007 11.7592 30.3157 7.68929 27.3157 4.6882C24.3157 1.68711 20.2464 0.000716078 16.003 0L16.0057 0.00269954ZM25.4114 22.8695C25.0576 23.4539 24.5866 23.9587 24.0281 24.3523C23.4696 24.7458 22.8358 25.0195 22.1664 25.1562C21.1558 25.3295 20.1186 25.2648 19.1373 24.9672C18.2068 24.6772 17.2921 24.3383 16.3972 23.9521C13.0758 22.2852 10.2448 19.7836 8.18202 16.6925C7.05673 15.2615 6.37367 13.5332 6.21665 11.7196C6.20369 10.971 6.34678 10.2279 6.63682 9.53762C6.92686 8.84737 7.35748 8.2251 7.90126 7.71045C8.06196 7.52712 8.25883 7.37901 8.47951 7.2754C8.70019 7.1718 8.93991 7.11494 9.18361 7.10841C9.50217 7.10841 9.82343 7.10841 10.1042 7.12461C10.4012 7.13811 10.7953 7.01122 11.1841 7.95073C11.589 8.91184 12.5501 11.2795 12.6689 11.5198C12.7452 11.6457 12.7888 11.7887 12.7959 11.9358C12.8029 12.0829 12.7732 12.2294 12.7094 12.3621C12.5883 12.6509 12.4265 12.9209 12.2289 13.1639C11.9859 13.4447 11.724 13.7903 11.508 14.0062C11.2651 14.2465 11.0167 14.5057 11.2948 14.9862C12.017 16.2229 12.9186 17.3456 13.9701 18.3177C15.1111 19.3321 16.4203 20.1398 17.8388 20.7043C18.3193 20.9473 18.6001 20.9041 18.8809 20.5828C19.1616 20.2615 20.0822 19.1789 20.4035 18.6984C20.7248 18.2178 21.0433 18.2988 21.4834 18.4581C21.9234 18.6174 24.291 19.781 24.7716 20.024C25.2521 20.2669 25.5734 20.383 25.6922 20.5828C25.8239 21.3561 25.7262 22.151 25.4114 22.8695Z" fill="white"/>
</svg>
